G75*
%MOIN*%
%OFA0B0*%
%FSLAX24Y24*%
%IPPOS*%
%LPD*%
%AMOC8*
5,1,8,0,0,1.08239X$1,22.5*
%
%ADD10R,0.0394X0.0433*%
%ADD11R,0.0315X0.0354*%
%ADD12R,0.0433X0.0394*%
%ADD13R,0.0315X0.0315*%
%ADD14R,0.0551X0.1181*%
%ADD15R,0.0500X0.0579*%
%ADD16R,0.0157X0.0531*%
%ADD17R,0.0591X0.0748*%
%ADD18R,0.0354X0.0315*%
%ADD19R,0.0866X0.0236*%
D10*
X011150Y004268D03*
X011150Y004937D03*
X017500Y009868D03*
X017500Y010537D03*
X015950Y011018D03*
X015950Y011687D03*
X013850Y011918D03*
X013250Y011918D03*
X012650Y011918D03*
X012650Y012587D03*
X013250Y012587D03*
X013850Y012587D03*
X032150Y009087D03*
X032150Y008418D03*
X036550Y011368D03*
X036550Y012037D03*
X044950Y005587D03*
X045550Y005587D03*
X046150Y005587D03*
X046150Y004918D03*
X045550Y004918D03*
X044950Y004918D03*
D11*
X020224Y006759D03*
X019476Y006759D03*
X019850Y007585D03*
X014950Y010919D03*
X014576Y011746D03*
X015324Y011746D03*
D12*
X023215Y013552D03*
X023885Y013552D03*
X026915Y013552D03*
X027585Y013552D03*
X038415Y008652D03*
X039085Y008652D03*
X039085Y005852D03*
X038415Y005852D03*
X023085Y006552D03*
X022415Y006552D03*
X020185Y006052D03*
X019515Y006052D03*
X044615Y014952D03*
X045285Y014952D03*
D13*
X045245Y015552D03*
X044655Y015552D03*
D14*
X038250Y012297D03*
X038250Y010407D03*
D15*
X035796Y012852D03*
X034104Y012852D03*
X040404Y015252D03*
X042096Y015252D03*
D16*
X035462Y014099D03*
X035206Y014099D03*
X034950Y014099D03*
X034694Y014099D03*
X034438Y014099D03*
D17*
X034556Y015148D03*
X035344Y015152D03*
D18*
X031344Y009126D03*
X030517Y008752D03*
X031344Y008378D03*
D19*
X035626Y008602D03*
X035626Y008102D03*
X035626Y007602D03*
X035626Y007102D03*
X037674Y007102D03*
X037674Y007602D03*
X037674Y008102D03*
X037674Y008602D03*
X037674Y005802D03*
X037674Y005302D03*
X037674Y004802D03*
X037674Y004302D03*
X035626Y004302D03*
X035626Y004802D03*
X035626Y005302D03*
X035626Y005802D03*
M02*
