G75*
%MOIN*%
%OFA0B0*%
%FSLAX24Y24*%
%IPPOS*%
%LPD*%
%AMOC8*
5,1,8,0,0,1.08239X$1,22.5*
%
%ADD10C,0.1330*%
%ADD11C,0.0820*%
%ADD12C,0.0552*%
%ADD13C,0.1080*%
%ADD14R,0.0580X0.0580*%
%ADD15C,0.0580*%
%ADD16C,0.0530*%
%ADD17C,0.0780*%
%ADD18R,0.0880X0.0880*%
%ADD19C,0.0880*%
%ADD20C,0.0560*%
%ADD21C,0.0552*%
%ADD22C,0.1261*%
%ADD23C,0.0316*%
%ADD24C,0.0513*%
%ADD25OC8,0.0680*%
%ADD26C,0.0965*%
D10*
X011250Y002352D03*
X011250Y014852D03*
X050750Y014852D03*
X050750Y002352D03*
D11*
X049350Y002852D03*
X048350Y002852D03*
X047350Y002852D03*
X047350Y003852D03*
X048350Y003852D03*
X049350Y003852D03*
X049350Y004852D03*
X048350Y004852D03*
X047350Y004852D03*
X047350Y005852D03*
X048350Y005852D03*
X049350Y005852D03*
X049350Y006852D03*
X048350Y006852D03*
X047350Y006852D03*
X047350Y007852D03*
X048350Y007852D03*
X049350Y007852D03*
X049350Y008852D03*
X048350Y008852D03*
X047350Y008852D03*
X047350Y009852D03*
X048350Y009852D03*
X049350Y009852D03*
X049350Y010852D03*
X048350Y010852D03*
X047350Y010852D03*
X047350Y011852D03*
X048350Y011852D03*
X049350Y011852D03*
X049350Y012852D03*
X048350Y012852D03*
X047350Y012852D03*
X047350Y013852D03*
X048350Y013852D03*
X049350Y013852D03*
X042350Y013852D03*
X041350Y013852D03*
X040350Y013852D03*
X040350Y012852D03*
X041350Y012852D03*
X042350Y012852D03*
X042350Y011852D03*
X041350Y011852D03*
X040350Y011852D03*
X040350Y010852D03*
X041350Y010852D03*
X042350Y010852D03*
X042350Y009852D03*
X041350Y009852D03*
X040350Y009852D03*
X040350Y008852D03*
X041350Y008852D03*
X042350Y008852D03*
X042350Y007852D03*
X041350Y007852D03*
X040350Y007852D03*
X040350Y006852D03*
X041350Y006852D03*
X042350Y006852D03*
X042350Y005852D03*
X041350Y005852D03*
X040350Y005852D03*
X040350Y004852D03*
X041350Y004852D03*
X042350Y004852D03*
X042350Y003852D03*
X041350Y003852D03*
X040350Y003852D03*
X040350Y002852D03*
X041350Y002852D03*
X042350Y002852D03*
X032550Y015252D03*
X031550Y015252D03*
X030550Y015252D03*
D12*
X019850Y010856D03*
X018846Y009852D03*
X020854Y009852D03*
X019850Y008848D03*
D13*
X023858Y008785D03*
X024669Y006825D03*
X028477Y006872D03*
X029242Y008719D03*
X028431Y010679D03*
X026583Y011445D03*
X024623Y010633D03*
D14*
X024731Y003152D03*
X020431Y003152D03*
X016131Y003152D03*
X029031Y003152D03*
X033331Y003152D03*
X037631Y003152D03*
D15*
X036844Y003152D03*
X036056Y003152D03*
X035269Y003152D03*
X032544Y003152D03*
X031756Y003152D03*
X030969Y003152D03*
X028244Y003152D03*
X027456Y003152D03*
X026669Y003152D03*
X023944Y003152D03*
X023156Y003152D03*
X022369Y003152D03*
X019644Y003152D03*
X018856Y003152D03*
X018069Y003152D03*
X015344Y003152D03*
X014556Y003152D03*
X013769Y003152D03*
D16*
X013600Y013827D02*
X013600Y014277D01*
X013100Y014277D02*
X013100Y013827D01*
X012600Y013827D02*
X012600Y014277D01*
X014100Y014277D02*
X014100Y013827D01*
D17*
X014950Y009132D03*
X014950Y006573D03*
D18*
X038850Y014552D03*
D19*
X037472Y014552D03*
D20*
X028950Y014862D02*
X028950Y015342D01*
X027950Y015342D02*
X027950Y014862D01*
X026950Y014862D02*
X026950Y015342D01*
X025150Y015342D02*
X025150Y014862D01*
X024150Y014862D02*
X024150Y015342D01*
X023150Y015342D02*
X023150Y014862D01*
D21*
X011386Y008752D02*
X010914Y008752D01*
X010914Y007752D02*
X011386Y007752D01*
X011386Y006752D02*
X010914Y006752D01*
X010914Y005752D02*
X011386Y005752D01*
D22*
X001400Y007252D03*
D23*
X034182Y014325D03*
X035718Y014325D03*
D24*
X036043Y014936D02*
X036043Y015369D01*
X033857Y015369D02*
X033857Y014936D01*
D25*
X021140Y015042D03*
X019360Y015042D03*
X017340Y015042D03*
X015560Y015042D03*
D26*
X015070Y014062D03*
X017830Y014062D03*
X018870Y014062D03*
X021630Y014062D03*
M02*
