G75*
%MOIN*%
%OFA0B0*%
%FSLAX24Y24*%
%IPPOS*%
%LPD*%
%AMOC8*
5,1,8,0,0,1.08239X$1,22.5*
%
%ADD10C,0.0060*%
%ADD11C,0.0110*%
%ADD12C,0.0120*%
%ADD13C,0.0080*%
%ADD14C,0.0050*%
%ADD15C,0.0100*%
%ADD16R,0.0180X0.0300*%
%ADD17R,0.0300X0.0180*%
%ADD18C,0.0220*%
%ADD19C,0.0040*%
%ADD20C,0.0020*%
%ADD21R,0.0300X0.0340*%
D10*
X008891Y006787D02*
X008948Y006730D01*
X009061Y006730D01*
X009118Y006787D01*
X009118Y007014D01*
X009061Y007070D01*
X008948Y007070D01*
X008891Y007014D01*
X008891Y006957D01*
X008948Y006900D01*
X009118Y006900D01*
X009260Y006900D02*
X009486Y006900D01*
X009628Y006957D02*
X009741Y007070D01*
X009741Y006730D01*
X009628Y006730D02*
X009855Y006730D01*
X009996Y006730D02*
X010223Y006957D01*
X010223Y007014D01*
X010166Y007070D01*
X010053Y007070D01*
X009996Y007014D01*
X009996Y006730D02*
X010223Y006730D01*
X010364Y006843D02*
X010478Y006730D01*
X010591Y006843D01*
X010591Y007070D01*
X010364Y007070D02*
X010364Y006843D01*
X011101Y006730D02*
X011271Y006730D01*
X011328Y006787D01*
X011328Y007014D01*
X011271Y007070D01*
X011101Y007070D01*
X011101Y006730D01*
X011469Y006787D02*
X011469Y007014D01*
X011526Y007070D01*
X011640Y007070D01*
X011696Y007014D01*
X011696Y006787D02*
X011640Y006730D01*
X011526Y006730D01*
X011469Y006787D01*
X011441Y009907D02*
X011441Y010133D01*
X011781Y010133D01*
X011725Y010275D02*
X011781Y010332D01*
X011781Y010445D01*
X011725Y010502D01*
X011498Y010502D01*
X011441Y010445D01*
X011441Y010332D01*
X011498Y010275D01*
X010931Y010332D02*
X010931Y010502D01*
X010591Y010502D01*
X010591Y010332D01*
X010648Y010275D01*
X010875Y010275D01*
X010931Y010332D01*
X010818Y010133D02*
X010931Y010020D01*
X010818Y009907D01*
X010591Y009907D01*
X010761Y009907D02*
X010761Y010133D01*
X010818Y010133D02*
X010591Y010133D01*
X010648Y010643D02*
X010591Y010700D01*
X010591Y010813D01*
X010648Y010870D01*
X010761Y010813D02*
X010761Y010700D01*
X010705Y010643D01*
X010648Y010643D01*
X010761Y010813D02*
X010818Y010870D01*
X010875Y010870D01*
X010931Y010813D01*
X010931Y010700D01*
X010875Y010643D01*
X011441Y010700D02*
X011441Y010813D01*
X011498Y010870D01*
X011611Y010813D02*
X011611Y010700D01*
X011555Y010643D01*
X011498Y010643D01*
X011441Y010700D01*
X011611Y010813D02*
X011668Y010870D01*
X011725Y010870D01*
X011781Y010813D01*
X011781Y010700D01*
X011725Y010643D01*
X026961Y012500D02*
X028811Y012500D01*
X028811Y016100D01*
X026961Y016100D01*
X026961Y012500D01*
X028361Y013100D02*
X028361Y013900D01*
X028511Y013900D01*
X028561Y013850D01*
X028161Y013850D01*
X028211Y013900D01*
X028361Y013900D01*
X028361Y014050D01*
X028311Y014000D01*
X028261Y013950D01*
X028211Y013900D01*
X028261Y013950D02*
X028461Y013950D01*
X028411Y014000D01*
X028311Y014000D01*
X028361Y014050D02*
X028411Y014000D01*
X028461Y013950D02*
X028511Y013900D01*
X030291Y012020D02*
X030405Y011907D01*
X030518Y012020D01*
X030518Y011680D01*
X030660Y011680D02*
X030773Y011680D01*
X030716Y011680D02*
X030716Y012020D01*
X030660Y012020D02*
X030773Y012020D01*
X030905Y011964D02*
X030905Y011737D01*
X030962Y011680D01*
X031075Y011680D01*
X031132Y011737D01*
X031273Y011737D02*
X031330Y011680D01*
X031444Y011680D01*
X031500Y011737D01*
X031500Y011793D01*
X031444Y011850D01*
X031330Y011850D01*
X031273Y011907D01*
X031273Y011964D01*
X031330Y012020D01*
X031444Y012020D01*
X031500Y011964D01*
X031642Y012020D02*
X031642Y011850D01*
X031755Y011907D01*
X031812Y011907D01*
X031869Y011850D01*
X031869Y011737D01*
X031812Y011680D01*
X031698Y011680D01*
X031642Y011737D01*
X032010Y011737D02*
X032067Y011680D01*
X032180Y011680D01*
X032237Y011737D01*
X032237Y011850D01*
X032180Y011907D01*
X032123Y011907D01*
X032010Y011850D01*
X032010Y012020D01*
X032237Y012020D01*
X032378Y011964D02*
X032435Y012020D01*
X032548Y012020D01*
X032605Y011964D01*
X032605Y011907D01*
X032378Y011680D01*
X032605Y011680D01*
X032747Y011737D02*
X032803Y011680D01*
X032917Y011680D01*
X032973Y011737D01*
X032973Y011850D01*
X032917Y011907D01*
X032860Y011907D01*
X032747Y011850D01*
X032747Y012020D01*
X032973Y012020D01*
X031869Y012020D02*
X031642Y012020D01*
X031132Y011964D02*
X031075Y012020D01*
X030962Y012020D01*
X030905Y011964D01*
X030291Y012020D02*
X030291Y011680D01*
X035561Y012500D02*
X037411Y012500D01*
X037411Y016100D01*
X035561Y016100D01*
X035561Y012500D01*
X036961Y013100D02*
X036961Y013900D01*
X037111Y013900D01*
X037161Y013850D01*
X036761Y013850D01*
X036811Y013900D01*
X036961Y013900D01*
X036961Y014050D01*
X036911Y014000D01*
X036861Y013950D01*
X036811Y013900D01*
X036861Y013950D02*
X037061Y013950D01*
X037011Y014000D01*
X036911Y014000D01*
X036961Y014050D02*
X037011Y014000D01*
X037061Y013950D02*
X037111Y013900D01*
X038891Y012020D02*
X039118Y012020D01*
X039005Y012020D02*
X039005Y011680D01*
X039260Y011737D02*
X039316Y011680D01*
X039430Y011680D01*
X039486Y011737D01*
X039486Y011850D01*
X039373Y011850D01*
X039260Y011737D02*
X039260Y011964D01*
X039316Y012020D01*
X039430Y012020D01*
X039486Y011964D01*
X039628Y011964D02*
X039628Y011907D01*
X039685Y011850D01*
X039798Y011850D01*
X039855Y011793D01*
X039855Y011737D01*
X039798Y011680D01*
X039685Y011680D01*
X039628Y011737D01*
X039996Y011680D02*
X040223Y011907D01*
X040223Y011964D01*
X040166Y012020D01*
X040053Y012020D01*
X039996Y011964D01*
X039855Y011964D02*
X039798Y012020D01*
X039685Y012020D01*
X039628Y011964D01*
X040364Y011850D02*
X040535Y011850D01*
X040591Y011793D01*
X040591Y011737D01*
X040535Y011680D01*
X040421Y011680D01*
X040364Y011737D01*
X040364Y011850D01*
X040478Y011964D01*
X040591Y012020D01*
X040733Y011964D02*
X040789Y012020D01*
X040903Y012020D01*
X040960Y011964D01*
X040733Y011737D01*
X040789Y011680D01*
X040903Y011680D01*
X040960Y011737D01*
X040960Y011964D01*
X041101Y011964D02*
X041158Y012020D01*
X041271Y012020D01*
X041328Y011964D01*
X041328Y011907D01*
X041101Y011680D01*
X041328Y011680D01*
X040733Y011737D02*
X040733Y011964D01*
X040223Y011680D02*
X039996Y011680D01*
X044141Y009664D02*
X044198Y009720D01*
X044311Y009720D01*
X044368Y009664D01*
X044368Y009607D01*
X044311Y009550D01*
X044368Y009493D01*
X044368Y009437D01*
X044311Y009380D01*
X044198Y009380D01*
X044141Y009437D01*
X044255Y009550D02*
X044311Y009550D01*
X044510Y009493D02*
X044623Y009380D01*
X044736Y009493D01*
X044736Y009720D01*
X044878Y009664D02*
X044935Y009720D01*
X045048Y009720D01*
X045105Y009664D01*
X045105Y009607D01*
X045048Y009550D01*
X045105Y009493D01*
X045105Y009437D01*
X045048Y009380D01*
X044935Y009380D01*
X044878Y009437D01*
X044991Y009550D02*
X045048Y009550D01*
X044510Y009493D02*
X044510Y009720D01*
X044623Y008720D02*
X044736Y008607D01*
X044736Y008380D01*
X044736Y008550D02*
X044510Y008550D01*
X044510Y008607D02*
X044510Y008380D01*
X044368Y008437D02*
X044368Y008664D01*
X044311Y008720D01*
X044141Y008720D01*
X044141Y008380D01*
X044311Y008380D01*
X044368Y008437D01*
X044510Y008607D02*
X044623Y008720D01*
X044878Y008720D02*
X045105Y008720D01*
X044991Y008720D02*
X044991Y008380D01*
X045246Y008380D02*
X045246Y008607D01*
X045360Y008720D01*
X045473Y008607D01*
X045473Y008380D01*
X045473Y008550D02*
X045246Y008550D01*
X041681Y008120D02*
X041681Y007950D01*
X041625Y007893D01*
X041398Y007893D01*
X041341Y007950D01*
X041341Y008120D01*
X041681Y008120D01*
X041681Y007752D02*
X041341Y007752D01*
X041511Y007752D02*
X041511Y007525D01*
X041681Y007525D02*
X041341Y007525D01*
X041341Y007270D02*
X041681Y007270D01*
X041681Y007383D02*
X041681Y007157D01*
X041625Y007015D02*
X041681Y006958D01*
X041681Y006845D01*
X041625Y006788D01*
X041568Y006788D01*
X041341Y007015D01*
X041341Y006788D01*
X041341Y006647D02*
X041568Y006420D01*
X041625Y006420D01*
X041681Y006477D01*
X041681Y006590D01*
X041625Y006647D01*
X041341Y006647D02*
X041341Y006420D01*
X039591Y005570D02*
X039591Y005230D01*
X039478Y005230D02*
X039705Y005230D01*
X039478Y005457D02*
X039591Y005570D01*
X039336Y005514D02*
X039280Y005570D01*
X039166Y005570D01*
X039110Y005514D01*
X039110Y005287D01*
X039166Y005230D01*
X039280Y005230D01*
X039336Y005287D01*
X039336Y005514D01*
X039223Y005343D02*
X039336Y005230D01*
X038968Y005230D02*
X038968Y005570D01*
X038855Y005457D01*
X038741Y005570D01*
X038741Y005230D01*
X037661Y003600D02*
X034061Y003600D01*
X034061Y001750D01*
X037661Y001750D01*
X037661Y003600D01*
X035461Y002350D02*
X035411Y002400D01*
X035411Y002000D01*
X035461Y002050D01*
X035461Y002200D01*
X034661Y002200D01*
X035461Y002200D02*
X035461Y002350D01*
X035511Y002300D01*
X035561Y002250D01*
X035561Y002150D01*
X035511Y002100D01*
X035461Y002050D01*
X035511Y002100D02*
X035511Y002300D01*
X035561Y002250D02*
X035611Y002200D01*
X035561Y002150D01*
X035611Y002200D02*
X035461Y002200D01*
X032231Y002200D02*
X032175Y002143D01*
X032061Y002143D01*
X032005Y002200D01*
X032005Y002370D01*
X032005Y002257D02*
X031891Y002143D01*
X031891Y002002D02*
X032231Y001775D01*
X032231Y002002D02*
X031891Y001775D01*
X031231Y001775D02*
X030891Y002002D01*
X030891Y001775D02*
X031231Y002002D01*
X031231Y002143D02*
X031231Y002370D01*
X031231Y002257D02*
X030891Y002257D01*
X030231Y002313D02*
X030175Y002370D01*
X029948Y002370D01*
X029891Y002313D01*
X029891Y002200D01*
X029948Y002143D01*
X030061Y002143D01*
X030061Y002257D01*
X030175Y002143D02*
X030231Y002200D01*
X030231Y002313D01*
X030231Y002002D02*
X029891Y001775D01*
X030231Y001775D01*
X030231Y001633D02*
X030231Y001463D01*
X030175Y001407D01*
X029948Y001407D01*
X029891Y001463D01*
X029891Y001633D01*
X030231Y001633D01*
X030231Y002002D02*
X029891Y002002D01*
X028961Y001750D02*
X028961Y003600D01*
X025361Y003600D01*
X025361Y001750D01*
X028961Y001750D01*
X026911Y002200D02*
X026861Y002150D01*
X026811Y002100D01*
X026761Y002050D01*
X026711Y002000D01*
X026711Y002400D01*
X026761Y002350D01*
X026761Y002200D01*
X025961Y002200D01*
X026761Y002200D02*
X026761Y002050D01*
X026811Y002100D02*
X026811Y002300D01*
X026861Y002250D01*
X026861Y002150D01*
X026911Y002200D02*
X026861Y002250D01*
X026811Y002300D02*
X026761Y002350D01*
X026761Y002200D02*
X026911Y002200D01*
X031891Y002370D02*
X032231Y002370D01*
X032231Y002200D01*
X040091Y001914D02*
X040091Y001857D01*
X040148Y001800D01*
X040261Y001800D01*
X040318Y001743D01*
X040318Y001687D01*
X040261Y001630D01*
X040148Y001630D01*
X040091Y001687D01*
X040091Y001914D02*
X040148Y001970D01*
X040261Y001970D01*
X040318Y001914D01*
X040460Y001970D02*
X040686Y001970D01*
X040573Y001970D02*
X040573Y001630D01*
X040828Y001630D02*
X040828Y001857D01*
X040941Y001970D01*
X041055Y001857D01*
X041055Y001630D01*
X041055Y001800D02*
X040828Y001800D01*
X041196Y001970D02*
X041423Y001970D01*
X041310Y001970D02*
X041310Y001630D01*
X041564Y001687D02*
X041621Y001630D01*
X041735Y001630D01*
X041791Y001687D01*
X041791Y001970D01*
X041933Y001914D02*
X041933Y001857D01*
X041989Y001800D01*
X042103Y001800D01*
X042160Y001743D01*
X042160Y001687D01*
X042103Y001630D01*
X041989Y001630D01*
X041933Y001687D01*
X041933Y001914D02*
X041989Y001970D01*
X042103Y001970D01*
X042160Y001914D01*
X041564Y001970D02*
X041564Y001687D01*
X043691Y001630D02*
X043861Y001630D01*
X043918Y001687D01*
X043918Y001743D01*
X043861Y001800D01*
X043691Y001800D01*
X043691Y001630D02*
X043691Y001970D01*
X043861Y001970D01*
X043918Y001914D01*
X043918Y001857D01*
X043861Y001800D01*
X044060Y001970D02*
X044286Y001970D01*
X044173Y001970D02*
X044173Y001630D01*
X044428Y001630D02*
X044428Y001970D01*
X044655Y001630D01*
X044655Y001970D01*
X044796Y001857D02*
X044910Y001970D01*
X044910Y001630D01*
X045023Y001630D02*
X044796Y001630D01*
X047091Y001630D02*
X047261Y001630D01*
X047318Y001687D01*
X047318Y001743D01*
X047261Y001800D01*
X047091Y001800D01*
X047091Y001630D02*
X047091Y001970D01*
X047261Y001970D01*
X047318Y001914D01*
X047318Y001857D01*
X047261Y001800D01*
X047460Y001970D02*
X047686Y001970D01*
X047573Y001970D02*
X047573Y001630D01*
X047828Y001630D02*
X047828Y001970D01*
X048055Y001630D01*
X048055Y001970D01*
X048196Y001914D02*
X048253Y001970D01*
X048366Y001970D01*
X048423Y001914D01*
X048423Y001857D01*
X048196Y001630D01*
X048423Y001630D01*
X049791Y001630D02*
X049791Y001970D01*
X049961Y001970D01*
X050018Y001914D01*
X050018Y001800D01*
X049961Y001743D01*
X049791Y001743D01*
X050160Y001630D02*
X050273Y001743D01*
X050386Y001630D01*
X050386Y001970D01*
X050528Y001970D02*
X050698Y001970D01*
X050755Y001914D01*
X050755Y001800D01*
X050698Y001743D01*
X050528Y001743D01*
X050528Y001630D02*
X050528Y001970D01*
X050641Y001743D02*
X050755Y001630D01*
X050160Y001630D02*
X050160Y001970D01*
X045105Y006437D02*
X045048Y006380D01*
X044878Y006380D01*
X044878Y006720D01*
X045048Y006720D01*
X045105Y006664D01*
X045105Y006437D01*
X044736Y006380D02*
X044736Y006720D01*
X044510Y006720D02*
X044736Y006380D01*
X044510Y006380D02*
X044510Y006720D01*
X044368Y006664D02*
X044311Y006720D01*
X044198Y006720D01*
X044141Y006664D01*
X044141Y006437D01*
X044198Y006380D01*
X044311Y006380D01*
X044368Y006437D01*
X044368Y006550D01*
X044255Y006550D01*
X031005Y005514D02*
X030948Y005570D01*
X030835Y005570D01*
X030778Y005514D01*
X030636Y005514D02*
X030636Y005287D01*
X030580Y005230D01*
X030466Y005230D01*
X030410Y005287D01*
X030410Y005514D01*
X030466Y005570D01*
X030580Y005570D01*
X030636Y005514D01*
X030523Y005343D02*
X030636Y005230D01*
X030778Y005230D02*
X031005Y005457D01*
X031005Y005514D01*
X031005Y005230D02*
X030778Y005230D01*
X030268Y005230D02*
X030268Y005570D01*
X030155Y005457D01*
X030041Y005570D01*
X030041Y005230D01*
D11*
X012010Y008650D02*
X011616Y008650D01*
X010110Y008650D02*
X009716Y008650D01*
X009913Y008847D02*
X009913Y008453D01*
X006563Y004247D02*
X006563Y003853D01*
X006366Y004050D02*
X006760Y004050D01*
X005760Y004050D02*
X005366Y004050D01*
D12*
X013761Y002800D02*
X013761Y001800D01*
X016261Y001800D01*
X016261Y002800D01*
X019261Y002800D01*
X019261Y001800D01*
X021761Y001800D01*
X021761Y002800D01*
X019261Y001800D02*
X019261Y001300D01*
X016261Y001300D01*
X016261Y001800D01*
X028261Y002050D02*
X028661Y002450D01*
X036961Y002050D02*
X037361Y002450D01*
X032361Y008000D02*
X032363Y008118D01*
X032369Y008236D01*
X032379Y008354D01*
X032393Y008471D01*
X032411Y008588D01*
X032433Y008705D01*
X032458Y008820D01*
X032488Y008934D01*
X032522Y009048D01*
X032559Y009160D01*
X032600Y009271D01*
X032645Y009380D01*
X032693Y009488D01*
X032745Y009594D01*
X032801Y009699D01*
X032860Y009801D01*
X032922Y009901D01*
X032988Y009999D01*
X033057Y010095D01*
X033130Y010189D01*
X033205Y010280D01*
X033284Y010368D01*
X033365Y010454D01*
X033450Y010537D01*
X033537Y010617D01*
X033626Y010694D01*
X033719Y010768D01*
X033813Y010838D01*
X033910Y010906D01*
X034010Y010970D01*
X034111Y011031D01*
X034214Y011088D01*
X034320Y011142D01*
X034427Y011193D01*
X034535Y011239D01*
X034645Y011282D01*
X034757Y011321D01*
X034870Y011357D01*
X034984Y011388D01*
X035099Y011416D01*
X035214Y011440D01*
X035331Y011460D01*
X035448Y011476D01*
X035566Y011488D01*
X035684Y011496D01*
X035802Y011500D01*
X035920Y011500D01*
X036038Y011496D01*
X036156Y011488D01*
X036274Y011476D01*
X036391Y011460D01*
X036508Y011440D01*
X036623Y011416D01*
X036738Y011388D01*
X036852Y011357D01*
X036965Y011321D01*
X037077Y011282D01*
X037187Y011239D01*
X037295Y011193D01*
X037402Y011142D01*
X037508Y011088D01*
X037611Y011031D01*
X037712Y010970D01*
X037812Y010906D01*
X037909Y010838D01*
X038003Y010768D01*
X038096Y010694D01*
X038185Y010617D01*
X038272Y010537D01*
X038357Y010454D01*
X038438Y010368D01*
X038517Y010280D01*
X038592Y010189D01*
X038665Y010095D01*
X038734Y009999D01*
X038800Y009901D01*
X038862Y009801D01*
X038921Y009699D01*
X038977Y009594D01*
X039029Y009488D01*
X039077Y009380D01*
X039122Y009271D01*
X039163Y009160D01*
X039200Y009048D01*
X039234Y008934D01*
X039264Y008820D01*
X039289Y008705D01*
X039311Y008588D01*
X039329Y008471D01*
X039343Y008354D01*
X039353Y008236D01*
X039359Y008118D01*
X039361Y008000D01*
X039359Y007882D01*
X039353Y007764D01*
X039343Y007646D01*
X039329Y007529D01*
X039311Y007412D01*
X039289Y007295D01*
X039264Y007180D01*
X039234Y007066D01*
X039200Y006952D01*
X039163Y006840D01*
X039122Y006729D01*
X039077Y006620D01*
X039029Y006512D01*
X038977Y006406D01*
X038921Y006301D01*
X038862Y006199D01*
X038800Y006099D01*
X038734Y006001D01*
X038665Y005905D01*
X038592Y005811D01*
X038517Y005720D01*
X038438Y005632D01*
X038357Y005546D01*
X038272Y005463D01*
X038185Y005383D01*
X038096Y005306D01*
X038003Y005232D01*
X037909Y005162D01*
X037812Y005094D01*
X037712Y005030D01*
X037611Y004969D01*
X037508Y004912D01*
X037402Y004858D01*
X037295Y004807D01*
X037187Y004761D01*
X037077Y004718D01*
X036965Y004679D01*
X036852Y004643D01*
X036738Y004612D01*
X036623Y004584D01*
X036508Y004560D01*
X036391Y004540D01*
X036274Y004524D01*
X036156Y004512D01*
X036038Y004504D01*
X035920Y004500D01*
X035802Y004500D01*
X035684Y004504D01*
X035566Y004512D01*
X035448Y004524D01*
X035331Y004540D01*
X035214Y004560D01*
X035099Y004584D01*
X034984Y004612D01*
X034870Y004643D01*
X034757Y004679D01*
X034645Y004718D01*
X034535Y004761D01*
X034427Y004807D01*
X034320Y004858D01*
X034214Y004912D01*
X034111Y004969D01*
X034010Y005030D01*
X033910Y005094D01*
X033813Y005162D01*
X033719Y005232D01*
X033626Y005306D01*
X033537Y005383D01*
X033450Y005463D01*
X033365Y005546D01*
X033284Y005632D01*
X033205Y005720D01*
X033130Y005811D01*
X033057Y005905D01*
X032988Y006001D01*
X032922Y006099D01*
X032860Y006199D01*
X032801Y006301D01*
X032745Y006406D01*
X032693Y006512D01*
X032645Y006620D01*
X032600Y006729D01*
X032559Y006840D01*
X032522Y006952D01*
X032488Y007066D01*
X032458Y007180D01*
X032433Y007295D01*
X032411Y007412D01*
X032393Y007529D01*
X032379Y007646D01*
X032369Y007764D01*
X032363Y007882D01*
X032361Y008000D01*
X023661Y008000D02*
X023663Y008118D01*
X023669Y008236D01*
X023679Y008354D01*
X023693Y008471D01*
X023711Y008588D01*
X023733Y008705D01*
X023758Y008820D01*
X023788Y008934D01*
X023822Y009048D01*
X023859Y009160D01*
X023900Y009271D01*
X023945Y009380D01*
X023993Y009488D01*
X024045Y009594D01*
X024101Y009699D01*
X024160Y009801D01*
X024222Y009901D01*
X024288Y009999D01*
X024357Y010095D01*
X024430Y010189D01*
X024505Y010280D01*
X024584Y010368D01*
X024665Y010454D01*
X024750Y010537D01*
X024837Y010617D01*
X024926Y010694D01*
X025019Y010768D01*
X025113Y010838D01*
X025210Y010906D01*
X025310Y010970D01*
X025411Y011031D01*
X025514Y011088D01*
X025620Y011142D01*
X025727Y011193D01*
X025835Y011239D01*
X025945Y011282D01*
X026057Y011321D01*
X026170Y011357D01*
X026284Y011388D01*
X026399Y011416D01*
X026514Y011440D01*
X026631Y011460D01*
X026748Y011476D01*
X026866Y011488D01*
X026984Y011496D01*
X027102Y011500D01*
X027220Y011500D01*
X027338Y011496D01*
X027456Y011488D01*
X027574Y011476D01*
X027691Y011460D01*
X027808Y011440D01*
X027923Y011416D01*
X028038Y011388D01*
X028152Y011357D01*
X028265Y011321D01*
X028377Y011282D01*
X028487Y011239D01*
X028595Y011193D01*
X028702Y011142D01*
X028808Y011088D01*
X028911Y011031D01*
X029012Y010970D01*
X029112Y010906D01*
X029209Y010838D01*
X029303Y010768D01*
X029396Y010694D01*
X029485Y010617D01*
X029572Y010537D01*
X029657Y010454D01*
X029738Y010368D01*
X029817Y010280D01*
X029892Y010189D01*
X029965Y010095D01*
X030034Y009999D01*
X030100Y009901D01*
X030162Y009801D01*
X030221Y009699D01*
X030277Y009594D01*
X030329Y009488D01*
X030377Y009380D01*
X030422Y009271D01*
X030463Y009160D01*
X030500Y009048D01*
X030534Y008934D01*
X030564Y008820D01*
X030589Y008705D01*
X030611Y008588D01*
X030629Y008471D01*
X030643Y008354D01*
X030653Y008236D01*
X030659Y008118D01*
X030661Y008000D01*
X030659Y007882D01*
X030653Y007764D01*
X030643Y007646D01*
X030629Y007529D01*
X030611Y007412D01*
X030589Y007295D01*
X030564Y007180D01*
X030534Y007066D01*
X030500Y006952D01*
X030463Y006840D01*
X030422Y006729D01*
X030377Y006620D01*
X030329Y006512D01*
X030277Y006406D01*
X030221Y006301D01*
X030162Y006199D01*
X030100Y006099D01*
X030034Y006001D01*
X029965Y005905D01*
X029892Y005811D01*
X029817Y005720D01*
X029738Y005632D01*
X029657Y005546D01*
X029572Y005463D01*
X029485Y005383D01*
X029396Y005306D01*
X029303Y005232D01*
X029209Y005162D01*
X029112Y005094D01*
X029012Y005030D01*
X028911Y004969D01*
X028808Y004912D01*
X028702Y004858D01*
X028595Y004807D01*
X028487Y004761D01*
X028377Y004718D01*
X028265Y004679D01*
X028152Y004643D01*
X028038Y004612D01*
X027923Y004584D01*
X027808Y004560D01*
X027691Y004540D01*
X027574Y004524D01*
X027456Y004512D01*
X027338Y004504D01*
X027220Y004500D01*
X027102Y004500D01*
X026984Y004504D01*
X026866Y004512D01*
X026748Y004524D01*
X026631Y004540D01*
X026514Y004560D01*
X026399Y004584D01*
X026284Y004612D01*
X026170Y004643D01*
X026057Y004679D01*
X025945Y004718D01*
X025835Y004761D01*
X025727Y004807D01*
X025620Y004858D01*
X025514Y004912D01*
X025411Y004969D01*
X025310Y005030D01*
X025210Y005094D01*
X025113Y005162D01*
X025019Y005232D01*
X024926Y005306D01*
X024837Y005383D01*
X024750Y005463D01*
X024665Y005546D01*
X024584Y005632D01*
X024505Y005720D01*
X024430Y005811D01*
X024357Y005905D01*
X024288Y006001D01*
X024222Y006099D01*
X024160Y006199D01*
X024101Y006301D01*
X024045Y006406D01*
X023993Y006512D01*
X023945Y006620D01*
X023900Y006729D01*
X023859Y006840D01*
X023822Y006952D01*
X023788Y007066D01*
X023758Y007180D01*
X023733Y007295D01*
X023711Y007412D01*
X023693Y007529D01*
X023679Y007646D01*
X023669Y007764D01*
X023663Y007882D01*
X023661Y008000D01*
X011961Y008300D02*
X011361Y008300D01*
X010861Y008300D02*
X009961Y008300D01*
X010711Y008300D02*
X010713Y008320D01*
X010719Y008338D01*
X010728Y008356D01*
X010740Y008371D01*
X010755Y008383D01*
X010773Y008392D01*
X010791Y008398D01*
X010811Y008400D01*
X010831Y008398D01*
X010849Y008392D01*
X010867Y008383D01*
X010882Y008371D01*
X010894Y008356D01*
X010903Y008338D01*
X010909Y008320D01*
X010911Y008300D01*
X010909Y008280D01*
X010903Y008262D01*
X010894Y008244D01*
X010882Y008229D01*
X010867Y008217D01*
X010849Y008208D01*
X010831Y008202D01*
X010811Y008200D01*
X010791Y008202D01*
X010773Y008208D01*
X010755Y008217D01*
X010740Y008229D01*
X010728Y008244D01*
X010719Y008262D01*
X010713Y008280D01*
X010711Y008300D01*
X010461Y008000D02*
X010490Y007969D01*
X010522Y007941D01*
X010556Y007916D01*
X010592Y007894D01*
X010630Y007876D01*
X010670Y007861D01*
X010711Y007850D01*
X010752Y007843D01*
X010794Y007839D01*
X010837Y007840D01*
X010879Y007844D01*
X010920Y007852D01*
X010961Y007864D01*
X011000Y007880D01*
X011038Y007899D01*
X011074Y007921D01*
X011107Y007947D01*
X011139Y007976D01*
X011167Y008007D01*
X011192Y008041D01*
X011214Y008077D01*
X011233Y008115D01*
X011248Y008154D01*
X011260Y008195D01*
X011268Y008237D01*
X011272Y008279D01*
X011272Y008321D01*
X011268Y008363D01*
X011260Y008405D01*
X011248Y008446D01*
X011233Y008485D01*
X011214Y008523D01*
X011192Y008559D01*
X011167Y008593D01*
X011139Y008624D01*
X011107Y008653D01*
X011074Y008679D01*
X011038Y008701D01*
X011000Y008720D01*
X010961Y008736D01*
X010920Y008748D01*
X010879Y008756D01*
X010837Y008760D01*
X010794Y008761D01*
X010752Y008757D01*
X010711Y008750D01*
X010670Y008739D01*
X010630Y008724D01*
X010592Y008706D01*
X010556Y008684D01*
X010522Y008659D01*
X010490Y008631D01*
X010461Y008600D01*
X013761Y014800D02*
X014761Y015800D01*
X020761Y015800D01*
X021761Y014800D01*
X028111Y015800D02*
X028511Y015400D01*
X036711Y015800D02*
X037111Y015400D01*
D13*
X008389Y005894D02*
X008389Y001720D01*
X012129Y001720D01*
X012129Y003965D01*
X013761Y002800D02*
X013761Y014800D01*
X014761Y014800D01*
X014761Y002800D01*
X013761Y002800D01*
X012141Y001720D02*
X012129Y001720D01*
X020761Y002800D02*
X020761Y014800D01*
X021761Y014800D01*
X021761Y002800D01*
X020761Y002800D01*
X029561Y002750D02*
X029811Y002500D01*
X030311Y002500D01*
X030561Y002750D01*
X030811Y002500D01*
X031311Y002500D01*
X031561Y002750D01*
X031811Y002500D01*
X032311Y002500D01*
X032561Y002750D01*
X032561Y003250D01*
X032311Y003500D01*
X031811Y003500D01*
X031561Y003250D01*
X031311Y003500D01*
X030811Y003500D01*
X030561Y003250D01*
X030311Y003500D01*
X029811Y003500D01*
X029561Y003250D01*
X029561Y002750D01*
X043261Y002812D02*
X043261Y003788D01*
X043655Y004300D02*
X044867Y004300D01*
X045261Y003788D02*
X045261Y002800D01*
X046661Y002812D02*
X046661Y003788D01*
X047055Y004300D02*
X048267Y004300D01*
X048661Y003788D02*
X048661Y002800D01*
X048267Y002300D02*
X047055Y002300D01*
X044867Y002300D02*
X043655Y002300D01*
X043761Y003300D02*
X043763Y003344D01*
X043769Y003388D01*
X043779Y003431D01*
X043792Y003473D01*
X043809Y003514D01*
X043830Y003553D01*
X043854Y003590D01*
X043881Y003625D01*
X043911Y003657D01*
X043944Y003687D01*
X043980Y003713D01*
X044017Y003737D01*
X044057Y003756D01*
X044098Y003773D01*
X044141Y003785D01*
X044184Y003794D01*
X044228Y003799D01*
X044272Y003800D01*
X044316Y003797D01*
X044360Y003790D01*
X044403Y003779D01*
X044445Y003765D01*
X044485Y003747D01*
X044524Y003725D01*
X044560Y003701D01*
X044594Y003673D01*
X044626Y003642D01*
X044655Y003608D01*
X044681Y003572D01*
X044703Y003534D01*
X044722Y003494D01*
X044737Y003452D01*
X044749Y003410D01*
X044757Y003366D01*
X044761Y003322D01*
X044761Y003278D01*
X044757Y003234D01*
X044749Y003190D01*
X044737Y003148D01*
X044722Y003106D01*
X044703Y003066D01*
X044681Y003028D01*
X044655Y002992D01*
X044626Y002958D01*
X044594Y002927D01*
X044560Y002899D01*
X044524Y002875D01*
X044485Y002853D01*
X044445Y002835D01*
X044403Y002821D01*
X044360Y002810D01*
X044316Y002803D01*
X044272Y002800D01*
X044228Y002801D01*
X044184Y002806D01*
X044141Y002815D01*
X044098Y002827D01*
X044057Y002844D01*
X044017Y002863D01*
X043980Y002887D01*
X043944Y002913D01*
X043911Y002943D01*
X043881Y002975D01*
X043854Y003010D01*
X043830Y003047D01*
X043809Y003086D01*
X043792Y003127D01*
X043779Y003169D01*
X043769Y003212D01*
X043763Y003256D01*
X043761Y003300D01*
X047161Y003300D02*
X047163Y003344D01*
X047169Y003388D01*
X047179Y003431D01*
X047192Y003473D01*
X047209Y003514D01*
X047230Y003553D01*
X047254Y003590D01*
X047281Y003625D01*
X047311Y003657D01*
X047344Y003687D01*
X047380Y003713D01*
X047417Y003737D01*
X047457Y003756D01*
X047498Y003773D01*
X047541Y003785D01*
X047584Y003794D01*
X047628Y003799D01*
X047672Y003800D01*
X047716Y003797D01*
X047760Y003790D01*
X047803Y003779D01*
X047845Y003765D01*
X047885Y003747D01*
X047924Y003725D01*
X047960Y003701D01*
X047994Y003673D01*
X048026Y003642D01*
X048055Y003608D01*
X048081Y003572D01*
X048103Y003534D01*
X048122Y003494D01*
X048137Y003452D01*
X048149Y003410D01*
X048157Y003366D01*
X048161Y003322D01*
X048161Y003278D01*
X048157Y003234D01*
X048149Y003190D01*
X048137Y003148D01*
X048122Y003106D01*
X048103Y003066D01*
X048081Y003028D01*
X048055Y002992D01*
X048026Y002958D01*
X047994Y002927D01*
X047960Y002899D01*
X047924Y002875D01*
X047885Y002853D01*
X047845Y002835D01*
X047803Y002821D01*
X047760Y002810D01*
X047716Y002803D01*
X047672Y002800D01*
X047628Y002801D01*
X047584Y002806D01*
X047541Y002815D01*
X047498Y002827D01*
X047457Y002844D01*
X047417Y002863D01*
X047380Y002887D01*
X047344Y002913D01*
X047311Y002943D01*
X047281Y002975D01*
X047254Y003010D01*
X047230Y003047D01*
X047209Y003086D01*
X047192Y003127D01*
X047179Y003169D01*
X047169Y003212D01*
X047163Y003256D01*
X047161Y003300D01*
X050194Y002781D02*
X050194Y002600D01*
X050316Y002692D01*
X050194Y002600D02*
X050194Y002419D01*
X050316Y002514D02*
X050200Y002590D01*
X045637Y013449D02*
X045322Y013449D01*
X045637Y013449D02*
X045637Y013685D01*
X045637Y014315D02*
X045637Y014551D01*
X045322Y014551D01*
X046338Y014000D02*
X046340Y014096D01*
X046346Y014192D01*
X046356Y014287D01*
X046370Y014382D01*
X046387Y014477D01*
X046409Y014570D01*
X046435Y014663D01*
X046464Y014754D01*
X046497Y014844D01*
X046534Y014933D01*
X046574Y015020D01*
X046618Y015106D01*
X046665Y015189D01*
X046716Y015271D01*
X046770Y015350D01*
X046828Y015427D01*
X046888Y015501D01*
X046952Y015573D01*
X047018Y015643D01*
X047088Y015709D01*
X047160Y015773D01*
X047234Y015833D01*
X047311Y015891D01*
X047390Y015945D01*
X047472Y015996D01*
X047555Y016043D01*
X047641Y016087D01*
X047728Y016127D01*
X047817Y016164D01*
X047907Y016197D01*
X047998Y016226D01*
X048091Y016252D01*
X048184Y016274D01*
X048279Y016291D01*
X048374Y016305D01*
X048469Y016315D01*
X048565Y016321D01*
X048661Y016323D01*
X048757Y016321D01*
X048853Y016315D01*
X048948Y016305D01*
X049043Y016291D01*
X049138Y016274D01*
X049231Y016252D01*
X049324Y016226D01*
X049415Y016197D01*
X049505Y016164D01*
X049594Y016127D01*
X049681Y016087D01*
X049767Y016043D01*
X049850Y015996D01*
X049932Y015945D01*
X050011Y015891D01*
X050088Y015833D01*
X050162Y015773D01*
X050234Y015709D01*
X050304Y015643D01*
X050370Y015573D01*
X050434Y015501D01*
X050494Y015427D01*
X050552Y015350D01*
X050606Y015271D01*
X050657Y015189D01*
X050704Y015106D01*
X050748Y015020D01*
X050788Y014933D01*
X050825Y014844D01*
X050858Y014754D01*
X050887Y014663D01*
X050913Y014570D01*
X050935Y014477D01*
X050952Y014382D01*
X050966Y014287D01*
X050976Y014192D01*
X050982Y014096D01*
X050984Y014000D01*
X050982Y013904D01*
X050976Y013808D01*
X050966Y013713D01*
X050952Y013618D01*
X050935Y013523D01*
X050913Y013430D01*
X050887Y013337D01*
X050858Y013246D01*
X050825Y013156D01*
X050788Y013067D01*
X050748Y012980D01*
X050704Y012894D01*
X050657Y012811D01*
X050606Y012729D01*
X050552Y012650D01*
X050494Y012573D01*
X050434Y012499D01*
X050370Y012427D01*
X050304Y012357D01*
X050234Y012291D01*
X050162Y012227D01*
X050088Y012167D01*
X050011Y012109D01*
X049932Y012055D01*
X049850Y012004D01*
X049767Y011957D01*
X049681Y011913D01*
X049594Y011873D01*
X049505Y011836D01*
X049415Y011803D01*
X049324Y011774D01*
X049231Y011748D01*
X049138Y011726D01*
X049043Y011709D01*
X048948Y011695D01*
X048853Y011685D01*
X048757Y011679D01*
X048661Y011677D01*
X048565Y011679D01*
X048469Y011685D01*
X048374Y011695D01*
X048279Y011709D01*
X048184Y011726D01*
X048091Y011748D01*
X047998Y011774D01*
X047907Y011803D01*
X047817Y011836D01*
X047728Y011873D01*
X047641Y011913D01*
X047555Y011957D01*
X047472Y012004D01*
X047390Y012055D01*
X047311Y012109D01*
X047234Y012167D01*
X047160Y012227D01*
X047088Y012291D01*
X047018Y012357D01*
X046952Y012427D01*
X046888Y012499D01*
X046828Y012573D01*
X046770Y012650D01*
X046716Y012729D01*
X046665Y012811D01*
X046618Y012894D01*
X046574Y012980D01*
X046534Y013067D01*
X046497Y013156D01*
X046464Y013246D01*
X046435Y013337D01*
X046409Y013430D01*
X046387Y013523D01*
X046370Y013618D01*
X046356Y013713D01*
X046346Y013808D01*
X046340Y013904D01*
X046338Y014000D01*
X012129Y005894D02*
X012129Y005579D01*
X012129Y005894D02*
X010751Y005894D01*
X008901Y005894D02*
X008389Y005894D01*
X005411Y006210D02*
X003051Y006210D01*
X005411Y006210D02*
X005411Y008790D01*
X003051Y008790D01*
X007356Y008794D02*
X007356Y008971D01*
X009167Y008971D01*
X009167Y008794D01*
X007867Y008794D02*
X007867Y008006D01*
X007356Y008006D02*
X007356Y007829D01*
X009167Y007829D01*
X009167Y008006D01*
D14*
X012330Y011606D02*
X012330Y012394D01*
X012330Y014506D02*
X012330Y015294D01*
X028136Y014550D02*
X028136Y014400D01*
X028211Y014325D01*
X028361Y014475D02*
X028361Y014550D01*
X028436Y014625D01*
X028511Y014625D01*
X028586Y014550D01*
X028586Y014400D01*
X028511Y014325D01*
X028361Y014550D02*
X028286Y014625D01*
X028211Y014625D01*
X028136Y014550D01*
X029692Y014200D02*
X029694Y014288D01*
X029700Y014376D01*
X029710Y014464D01*
X029724Y014552D01*
X029741Y014638D01*
X029763Y014724D01*
X029788Y014808D01*
X029818Y014892D01*
X029850Y014974D01*
X029887Y015054D01*
X029927Y015133D01*
X029971Y015210D01*
X030018Y015285D01*
X030068Y015357D01*
X030122Y015428D01*
X030178Y015495D01*
X030238Y015561D01*
X030300Y015623D01*
X030366Y015683D01*
X030433Y015739D01*
X030504Y015793D01*
X030576Y015843D01*
X030651Y015890D01*
X030728Y015934D01*
X030807Y015974D01*
X030887Y016011D01*
X030969Y016043D01*
X031053Y016073D01*
X031137Y016098D01*
X031223Y016120D01*
X031309Y016137D01*
X031397Y016151D01*
X031485Y016161D01*
X031573Y016167D01*
X031661Y016169D01*
X031749Y016167D01*
X031837Y016161D01*
X031925Y016151D01*
X032013Y016137D01*
X032099Y016120D01*
X032185Y016098D01*
X032269Y016073D01*
X032353Y016043D01*
X032435Y016011D01*
X032515Y015974D01*
X032594Y015934D01*
X032671Y015890D01*
X032746Y015843D01*
X032818Y015793D01*
X032889Y015739D01*
X032956Y015683D01*
X033022Y015623D01*
X033084Y015561D01*
X033144Y015495D01*
X033200Y015428D01*
X033254Y015357D01*
X033304Y015285D01*
X033351Y015210D01*
X033395Y015133D01*
X033435Y015054D01*
X033472Y014974D01*
X033504Y014892D01*
X033534Y014808D01*
X033559Y014724D01*
X033581Y014638D01*
X033598Y014552D01*
X033612Y014464D01*
X033622Y014376D01*
X033628Y014288D01*
X033630Y014200D01*
X033628Y014112D01*
X033622Y014024D01*
X033612Y013936D01*
X033598Y013848D01*
X033581Y013762D01*
X033559Y013676D01*
X033534Y013592D01*
X033504Y013508D01*
X033472Y013426D01*
X033435Y013346D01*
X033395Y013267D01*
X033351Y013190D01*
X033304Y013115D01*
X033254Y013043D01*
X033200Y012972D01*
X033144Y012905D01*
X033084Y012839D01*
X033022Y012777D01*
X032956Y012717D01*
X032889Y012661D01*
X032818Y012607D01*
X032746Y012557D01*
X032671Y012510D01*
X032594Y012466D01*
X032515Y012426D01*
X032435Y012389D01*
X032353Y012357D01*
X032269Y012327D01*
X032185Y012302D01*
X032099Y012280D01*
X032013Y012263D01*
X031925Y012249D01*
X031837Y012239D01*
X031749Y012233D01*
X031661Y012231D01*
X031573Y012233D01*
X031485Y012239D01*
X031397Y012249D01*
X031309Y012263D01*
X031223Y012280D01*
X031137Y012302D01*
X031053Y012327D01*
X030969Y012357D01*
X030887Y012389D01*
X030807Y012426D01*
X030728Y012466D01*
X030651Y012510D01*
X030576Y012557D01*
X030504Y012607D01*
X030433Y012661D01*
X030366Y012717D01*
X030300Y012777D01*
X030238Y012839D01*
X030178Y012905D01*
X030122Y012972D01*
X030068Y013043D01*
X030018Y013115D01*
X029971Y013190D01*
X029927Y013267D01*
X029887Y013346D01*
X029850Y013426D01*
X029818Y013508D01*
X029788Y013592D01*
X029763Y013676D01*
X029741Y013762D01*
X029724Y013848D01*
X029710Y013936D01*
X029700Y014024D01*
X029694Y014112D01*
X029692Y014200D01*
X033161Y015500D02*
X033361Y015700D01*
X033261Y015800D01*
X033161Y015900D01*
X032961Y015700D01*
X036736Y014550D02*
X036811Y014625D01*
X036886Y014625D01*
X036961Y014550D01*
X037036Y014625D01*
X037111Y014625D01*
X037186Y014550D01*
X037186Y014400D01*
X037111Y014325D01*
X036961Y014475D02*
X036961Y014550D01*
X036736Y014550D02*
X036736Y014400D01*
X036811Y014325D01*
X038250Y014300D02*
X038252Y014385D01*
X038258Y014470D01*
X038268Y014554D01*
X038282Y014638D01*
X038300Y014721D01*
X038321Y014803D01*
X038347Y014884D01*
X038376Y014964D01*
X038409Y015042D01*
X038445Y015118D01*
X038486Y015193D01*
X038529Y015266D01*
X038576Y015337D01*
X038626Y015405D01*
X038680Y015471D01*
X038736Y015535D01*
X038796Y015595D01*
X038858Y015653D01*
X038922Y015708D01*
X038990Y015760D01*
X039059Y015809D01*
X039131Y015854D01*
X039205Y015896D01*
X039281Y015934D01*
X039358Y015969D01*
X039437Y016000D01*
X039518Y016028D01*
X039599Y016051D01*
X039682Y016071D01*
X039765Y016087D01*
X039849Y016099D01*
X039934Y016107D01*
X040019Y016111D01*
X040103Y016111D01*
X040188Y016107D01*
X040273Y016099D01*
X040357Y016087D01*
X040440Y016071D01*
X040523Y016051D01*
X040604Y016028D01*
X040685Y016000D01*
X040764Y015969D01*
X040841Y015934D01*
X040917Y015896D01*
X040991Y015854D01*
X041063Y015809D01*
X041132Y015760D01*
X041200Y015708D01*
X041264Y015653D01*
X041326Y015595D01*
X041386Y015535D01*
X041442Y015471D01*
X041496Y015405D01*
X041546Y015337D01*
X041593Y015266D01*
X041636Y015193D01*
X041677Y015118D01*
X041713Y015042D01*
X041746Y014964D01*
X041775Y014884D01*
X041801Y014803D01*
X041822Y014721D01*
X041840Y014638D01*
X041854Y014554D01*
X041864Y014470D01*
X041870Y014385D01*
X041872Y014300D01*
X041870Y014215D01*
X041864Y014130D01*
X041854Y014046D01*
X041840Y013962D01*
X041822Y013879D01*
X041801Y013797D01*
X041775Y013716D01*
X041746Y013636D01*
X041713Y013558D01*
X041677Y013482D01*
X041636Y013407D01*
X041593Y013334D01*
X041546Y013263D01*
X041496Y013195D01*
X041442Y013129D01*
X041386Y013065D01*
X041326Y013005D01*
X041264Y012947D01*
X041200Y012892D01*
X041132Y012840D01*
X041063Y012791D01*
X040991Y012746D01*
X040917Y012704D01*
X040841Y012666D01*
X040764Y012631D01*
X040685Y012600D01*
X040604Y012572D01*
X040523Y012549D01*
X040440Y012529D01*
X040357Y012513D01*
X040273Y012501D01*
X040188Y012493D01*
X040103Y012489D01*
X040019Y012489D01*
X039934Y012493D01*
X039849Y012501D01*
X039765Y012513D01*
X039682Y012529D01*
X039599Y012549D01*
X039518Y012572D01*
X039437Y012600D01*
X039358Y012631D01*
X039281Y012666D01*
X039205Y012704D01*
X039131Y012746D01*
X039059Y012791D01*
X038990Y012840D01*
X038922Y012892D01*
X038858Y012947D01*
X038796Y013005D01*
X038736Y013065D01*
X038680Y013129D01*
X038626Y013195D01*
X038576Y013263D01*
X038529Y013334D01*
X038486Y013407D01*
X038445Y013482D01*
X038409Y013558D01*
X038376Y013636D01*
X038347Y013716D01*
X038321Y013797D01*
X038300Y013879D01*
X038282Y013962D01*
X038268Y014046D01*
X038258Y014130D01*
X038252Y014215D01*
X038250Y014300D01*
X041461Y015500D02*
X041661Y015700D01*
X041561Y015800D01*
X041461Y015900D01*
X041261Y015700D01*
X034743Y008000D02*
X034745Y008066D01*
X034751Y008132D01*
X034761Y008198D01*
X034774Y008263D01*
X034792Y008327D01*
X034813Y008389D01*
X034838Y008451D01*
X034866Y008511D01*
X034898Y008569D01*
X034934Y008625D01*
X034972Y008678D01*
X035014Y008730D01*
X035059Y008779D01*
X035106Y008825D01*
X035157Y008868D01*
X035209Y008908D01*
X035264Y008945D01*
X035321Y008979D01*
X035380Y009009D01*
X035441Y009036D01*
X035503Y009059D01*
X035566Y009078D01*
X035631Y009094D01*
X035696Y009106D01*
X035762Y009114D01*
X035828Y009118D01*
X035894Y009118D01*
X035960Y009114D01*
X036026Y009106D01*
X036091Y009094D01*
X036156Y009078D01*
X036219Y009059D01*
X036281Y009036D01*
X036342Y009009D01*
X036401Y008979D01*
X036458Y008945D01*
X036513Y008908D01*
X036565Y008868D01*
X036616Y008825D01*
X036663Y008779D01*
X036708Y008730D01*
X036750Y008678D01*
X036788Y008625D01*
X036824Y008569D01*
X036856Y008511D01*
X036884Y008451D01*
X036909Y008389D01*
X036930Y008327D01*
X036948Y008263D01*
X036961Y008198D01*
X036971Y008132D01*
X036977Y008066D01*
X036979Y008000D01*
X036977Y007934D01*
X036971Y007868D01*
X036961Y007802D01*
X036948Y007737D01*
X036930Y007673D01*
X036909Y007611D01*
X036884Y007549D01*
X036856Y007489D01*
X036824Y007431D01*
X036788Y007375D01*
X036750Y007322D01*
X036708Y007270D01*
X036663Y007221D01*
X036616Y007175D01*
X036565Y007132D01*
X036513Y007092D01*
X036458Y007055D01*
X036401Y007021D01*
X036342Y006991D01*
X036281Y006964D01*
X036219Y006941D01*
X036156Y006922D01*
X036091Y006906D01*
X036026Y006894D01*
X035960Y006886D01*
X035894Y006882D01*
X035828Y006882D01*
X035762Y006886D01*
X035696Y006894D01*
X035631Y006906D01*
X035566Y006922D01*
X035503Y006941D01*
X035441Y006964D01*
X035380Y006991D01*
X035321Y007021D01*
X035264Y007055D01*
X035209Y007092D01*
X035157Y007132D01*
X035106Y007175D01*
X035059Y007221D01*
X035014Y007270D01*
X034972Y007322D01*
X034934Y007375D01*
X034898Y007431D01*
X034866Y007489D01*
X034838Y007549D01*
X034813Y007611D01*
X034792Y007673D01*
X034774Y007737D01*
X034761Y007802D01*
X034751Y007868D01*
X034745Y007934D01*
X034743Y008000D01*
X026043Y008000D02*
X026045Y008066D01*
X026051Y008132D01*
X026061Y008198D01*
X026074Y008263D01*
X026092Y008327D01*
X026113Y008389D01*
X026138Y008451D01*
X026166Y008511D01*
X026198Y008569D01*
X026234Y008625D01*
X026272Y008678D01*
X026314Y008730D01*
X026359Y008779D01*
X026406Y008825D01*
X026457Y008868D01*
X026509Y008908D01*
X026564Y008945D01*
X026621Y008979D01*
X026680Y009009D01*
X026741Y009036D01*
X026803Y009059D01*
X026866Y009078D01*
X026931Y009094D01*
X026996Y009106D01*
X027062Y009114D01*
X027128Y009118D01*
X027194Y009118D01*
X027260Y009114D01*
X027326Y009106D01*
X027391Y009094D01*
X027456Y009078D01*
X027519Y009059D01*
X027581Y009036D01*
X027642Y009009D01*
X027701Y008979D01*
X027758Y008945D01*
X027813Y008908D01*
X027865Y008868D01*
X027916Y008825D01*
X027963Y008779D01*
X028008Y008730D01*
X028050Y008678D01*
X028088Y008625D01*
X028124Y008569D01*
X028156Y008511D01*
X028184Y008451D01*
X028209Y008389D01*
X028230Y008327D01*
X028248Y008263D01*
X028261Y008198D01*
X028271Y008132D01*
X028277Y008066D01*
X028279Y008000D01*
X028277Y007934D01*
X028271Y007868D01*
X028261Y007802D01*
X028248Y007737D01*
X028230Y007673D01*
X028209Y007611D01*
X028184Y007549D01*
X028156Y007489D01*
X028124Y007431D01*
X028088Y007375D01*
X028050Y007322D01*
X028008Y007270D01*
X027963Y007221D01*
X027916Y007175D01*
X027865Y007132D01*
X027813Y007092D01*
X027758Y007055D01*
X027701Y007021D01*
X027642Y006991D01*
X027581Y006964D01*
X027519Y006941D01*
X027456Y006922D01*
X027391Y006906D01*
X027326Y006894D01*
X027260Y006886D01*
X027194Y006882D01*
X027128Y006882D01*
X027062Y006886D01*
X026996Y006894D01*
X026931Y006906D01*
X026866Y006922D01*
X026803Y006941D01*
X026741Y006964D01*
X026680Y006991D01*
X026621Y007021D01*
X026564Y007055D01*
X026509Y007092D01*
X026457Y007132D01*
X026406Y007175D01*
X026359Y007221D01*
X026314Y007270D01*
X026272Y007322D01*
X026234Y007375D01*
X026198Y007431D01*
X026166Y007489D01*
X026138Y007549D01*
X026113Y007611D01*
X026092Y007673D01*
X026074Y007737D01*
X026061Y007802D01*
X026051Y007868D01*
X026045Y007934D01*
X026043Y008000D01*
X040767Y002316D02*
X040708Y002342D01*
X040651Y002371D01*
X040596Y002403D01*
X040542Y002439D01*
X040491Y002478D01*
X040443Y002521D01*
X040397Y002566D01*
X040354Y002613D01*
X040313Y002663D01*
X040276Y002716D01*
X040243Y002771D01*
X040212Y002827D01*
X040185Y002886D01*
X040162Y002946D01*
X040142Y003007D01*
X040126Y003069D01*
X040114Y003133D01*
X040106Y003196D01*
X040102Y003260D01*
X040101Y003325D01*
X040105Y003389D01*
X040112Y003453D01*
X040123Y003516D01*
X040138Y003579D01*
X040157Y003640D01*
X040180Y003701D01*
X040206Y003759D01*
X040235Y003816D01*
X040268Y003872D01*
X040305Y003925D01*
X040344Y003975D01*
X040387Y004024D01*
X040432Y004069D01*
X040480Y004112D01*
X040530Y004152D01*
X040583Y004189D01*
X040638Y004222D01*
X040695Y004252D01*
X040754Y004279D01*
X040814Y004302D01*
X040875Y004321D01*
X040938Y004336D01*
X041001Y004348D01*
X041065Y004356D01*
X041129Y004360D01*
X041193Y004360D01*
X041257Y004356D01*
X041321Y004348D01*
X041384Y004336D01*
X041447Y004321D01*
X041508Y004302D01*
X041568Y004279D01*
X041627Y004252D01*
X041684Y004222D01*
X041739Y004189D01*
X041792Y004152D01*
X041842Y004112D01*
X041890Y004069D01*
X041935Y004024D01*
X041978Y003975D01*
X042017Y003925D01*
X042054Y003872D01*
X042087Y003816D01*
X042116Y003759D01*
X042142Y003701D01*
X042165Y003640D01*
X042184Y003579D01*
X042199Y003516D01*
X042210Y003453D01*
X042217Y003389D01*
X042221Y003325D01*
X042220Y003260D01*
X042216Y003196D01*
X042208Y003133D01*
X042196Y003069D01*
X042180Y003007D01*
X042160Y002946D01*
X042137Y002886D01*
X042110Y002827D01*
X042079Y002771D01*
X042046Y002716D01*
X042009Y002663D01*
X041968Y002613D01*
X041925Y002566D01*
X041879Y002521D01*
X041831Y002478D01*
X041780Y002439D01*
X041726Y002403D01*
X041671Y002371D01*
X041614Y002342D01*
X041555Y002316D01*
X040767Y002316D01*
X036186Y002350D02*
X036186Y002275D01*
X036111Y002200D01*
X036186Y002125D01*
X036186Y002050D01*
X036111Y001975D01*
X035961Y001975D01*
X035886Y002050D01*
X036036Y002200D02*
X036111Y002200D01*
X036186Y002350D02*
X036111Y002425D01*
X035961Y002425D01*
X035886Y002350D01*
X027486Y002350D02*
X027486Y002275D01*
X027411Y002200D01*
X027486Y002125D01*
X027486Y002050D01*
X027411Y001975D01*
X027261Y001975D01*
X027186Y002050D01*
X027336Y002200D02*
X027411Y002200D01*
X027486Y002350D02*
X027411Y002425D01*
X027261Y002425D01*
X027186Y002350D01*
D15*
X043761Y005000D02*
X051761Y005000D01*
X053761Y006000D01*
X053761Y010000D01*
X051761Y011000D01*
X051761Y005000D01*
X043761Y005000D02*
X043761Y008000D01*
X043761Y011000D01*
X051761Y011000D01*
X012330Y011134D02*
X008393Y011134D01*
X008393Y012866D01*
X008393Y013102D01*
X009101Y013102D01*
X009101Y012866D01*
X011621Y012866D01*
X011621Y013102D01*
X012330Y013102D01*
X012330Y012866D01*
X011621Y012866D01*
X012330Y012866D02*
X012330Y011134D01*
X008393Y011409D02*
X008393Y012591D01*
X008393Y012866D02*
X009101Y012866D01*
X008393Y014034D02*
X012330Y014034D01*
X012330Y015766D01*
X012330Y016002D01*
X011621Y016002D01*
X011621Y015766D01*
X009101Y015766D01*
X009101Y016002D01*
X008393Y016002D01*
X008393Y015766D01*
X008393Y014034D01*
X008393Y014309D02*
X008393Y015491D01*
X008393Y015766D02*
X009101Y015766D01*
X011621Y015766D02*
X012330Y015766D01*
D16*
X016661Y014300D03*
X016661Y013300D03*
X039261Y004200D03*
X039261Y003300D03*
X039261Y002400D03*
X050261Y003900D03*
D17*
X041461Y009000D03*
X034861Y013100D03*
X026261Y013100D03*
X044161Y014000D03*
X033361Y003000D03*
X024661Y003000D03*
D18*
X009561Y010488D02*
X009561Y010512D01*
D19*
X007741Y011490D02*
X007071Y010820D01*
X006835Y010820D01*
X006087Y010820D02*
X005851Y010820D01*
X005182Y011490D01*
X005182Y013380D01*
X006087Y013380D01*
X006835Y013380D02*
X007741Y013380D01*
X007741Y011490D01*
X006087Y010939D02*
X006023Y010961D01*
X005960Y010988D01*
X005898Y011018D01*
X005839Y011051D01*
X005781Y011087D01*
X005725Y011127D01*
X005672Y011170D01*
X005621Y011215D01*
X005573Y011263D01*
X005528Y011314D01*
X005485Y011368D01*
X005446Y011424D01*
X005409Y011481D01*
X005376Y011541D01*
X005347Y011603D01*
X005321Y011666D01*
X005298Y011730D01*
X005279Y011796D01*
X005264Y011863D01*
X005253Y011930D01*
X005245Y011998D01*
X005241Y012066D01*
X005241Y012134D01*
X005245Y012202D01*
X005253Y012270D01*
X005264Y012337D01*
X005279Y012404D01*
X005298Y012470D01*
X005321Y012534D01*
X005347Y012597D01*
X005376Y012659D01*
X005409Y012719D01*
X005446Y012776D01*
X005485Y012832D01*
X005528Y012886D01*
X005573Y012937D01*
X005621Y012985D01*
X005672Y013030D01*
X005725Y013073D01*
X005781Y013113D01*
X005839Y013149D01*
X005898Y013182D01*
X005960Y013212D01*
X006023Y013239D01*
X006087Y013261D01*
X004741Y013380D02*
X004741Y011490D01*
X004071Y010820D01*
X003835Y010820D01*
X003087Y010820D02*
X002851Y010820D01*
X002182Y011490D01*
X002182Y013380D01*
X003087Y013380D01*
X003835Y013380D02*
X004741Y013380D01*
X003087Y013261D02*
X003023Y013239D01*
X002960Y013212D01*
X002898Y013182D01*
X002839Y013149D01*
X002781Y013113D01*
X002725Y013073D01*
X002672Y013030D01*
X002621Y012985D01*
X002573Y012937D01*
X002528Y012886D01*
X002485Y012832D01*
X002446Y012776D01*
X002409Y012719D01*
X002376Y012659D01*
X002347Y012597D01*
X002321Y012534D01*
X002298Y012470D01*
X002279Y012404D01*
X002264Y012337D01*
X002253Y012270D01*
X002245Y012202D01*
X002241Y012134D01*
X002241Y012066D01*
X002245Y011998D01*
X002253Y011930D01*
X002264Y011863D01*
X002279Y011796D01*
X002298Y011730D01*
X002321Y011666D01*
X002347Y011603D01*
X002376Y011541D01*
X002409Y011481D01*
X002446Y011424D01*
X002485Y011368D01*
X002528Y011314D01*
X002573Y011263D01*
X002621Y011215D01*
X002672Y011170D01*
X002725Y011127D01*
X002781Y011087D01*
X002839Y011051D01*
X002898Y011018D01*
X002960Y010988D01*
X003023Y010961D01*
X003087Y010939D01*
X003835Y010939D02*
X003899Y010961D01*
X003962Y010988D01*
X004024Y011018D01*
X004083Y011051D01*
X004141Y011087D01*
X004197Y011127D01*
X004250Y011170D01*
X004301Y011215D01*
X004349Y011263D01*
X004394Y011314D01*
X004437Y011368D01*
X004476Y011424D01*
X004513Y011481D01*
X004546Y011541D01*
X004575Y011603D01*
X004601Y011666D01*
X004624Y011730D01*
X004643Y011796D01*
X004658Y011863D01*
X004669Y011930D01*
X004677Y011998D01*
X004681Y012066D01*
X004681Y012134D01*
X004677Y012202D01*
X004669Y012270D01*
X004658Y012337D01*
X004643Y012404D01*
X004624Y012470D01*
X004601Y012534D01*
X004575Y012597D01*
X004546Y012659D01*
X004513Y012719D01*
X004476Y012776D01*
X004437Y012832D01*
X004394Y012886D01*
X004349Y012937D01*
X004301Y012985D01*
X004250Y013030D01*
X004197Y013073D01*
X004141Y013113D01*
X004083Y013149D01*
X004024Y013182D01*
X003962Y013212D01*
X003899Y013239D01*
X003835Y013261D01*
X006835Y013261D02*
X006899Y013239D01*
X006962Y013212D01*
X007024Y013182D01*
X007083Y013149D01*
X007141Y013113D01*
X007197Y013073D01*
X007250Y013030D01*
X007301Y012985D01*
X007349Y012937D01*
X007394Y012886D01*
X007437Y012832D01*
X007476Y012776D01*
X007513Y012719D01*
X007546Y012659D01*
X007575Y012597D01*
X007601Y012534D01*
X007624Y012470D01*
X007643Y012404D01*
X007658Y012337D01*
X007669Y012270D01*
X007677Y012202D01*
X007681Y012134D01*
X007681Y012066D01*
X007677Y011998D01*
X007669Y011930D01*
X007658Y011863D01*
X007643Y011796D01*
X007624Y011730D01*
X007601Y011666D01*
X007575Y011603D01*
X007546Y011541D01*
X007513Y011481D01*
X007476Y011424D01*
X007437Y011368D01*
X007394Y011314D01*
X007349Y011263D01*
X007301Y011215D01*
X007250Y011170D01*
X007197Y011127D01*
X007141Y011087D01*
X007083Y011051D01*
X007024Y011018D01*
X006962Y010988D01*
X006899Y010961D01*
X006835Y010939D01*
D20*
X028061Y015600D02*
X028063Y015631D01*
X028069Y015662D01*
X028079Y015692D01*
X028092Y015720D01*
X028109Y015747D01*
X028129Y015771D01*
X028152Y015793D01*
X028177Y015811D01*
X028205Y015826D01*
X028234Y015838D01*
X028264Y015846D01*
X028295Y015850D01*
X028327Y015850D01*
X028358Y015846D01*
X028388Y015838D01*
X028417Y015826D01*
X028445Y015811D01*
X028470Y015793D01*
X028493Y015771D01*
X028513Y015747D01*
X028530Y015720D01*
X028543Y015692D01*
X028553Y015662D01*
X028559Y015631D01*
X028561Y015600D01*
X028559Y015569D01*
X028553Y015538D01*
X028543Y015508D01*
X028530Y015480D01*
X028513Y015453D01*
X028493Y015429D01*
X028470Y015407D01*
X028445Y015389D01*
X028417Y015374D01*
X028388Y015362D01*
X028358Y015354D01*
X028327Y015350D01*
X028295Y015350D01*
X028264Y015354D01*
X028234Y015362D01*
X028205Y015374D01*
X028177Y015389D01*
X028152Y015407D01*
X028129Y015429D01*
X028109Y015453D01*
X028092Y015480D01*
X028079Y015508D01*
X028069Y015538D01*
X028063Y015569D01*
X028061Y015600D01*
X036661Y015600D02*
X036663Y015631D01*
X036669Y015662D01*
X036679Y015692D01*
X036692Y015720D01*
X036709Y015747D01*
X036729Y015771D01*
X036752Y015793D01*
X036777Y015811D01*
X036805Y015826D01*
X036834Y015838D01*
X036864Y015846D01*
X036895Y015850D01*
X036927Y015850D01*
X036958Y015846D01*
X036988Y015838D01*
X037017Y015826D01*
X037045Y015811D01*
X037070Y015793D01*
X037093Y015771D01*
X037113Y015747D01*
X037130Y015720D01*
X037143Y015692D01*
X037153Y015662D01*
X037159Y015631D01*
X037161Y015600D01*
X037159Y015569D01*
X037153Y015538D01*
X037143Y015508D01*
X037130Y015480D01*
X037113Y015453D01*
X037093Y015429D01*
X037070Y015407D01*
X037045Y015389D01*
X037017Y015374D01*
X036988Y015362D01*
X036958Y015354D01*
X036927Y015350D01*
X036895Y015350D01*
X036864Y015354D01*
X036834Y015362D01*
X036805Y015374D01*
X036777Y015389D01*
X036752Y015407D01*
X036729Y015429D01*
X036709Y015453D01*
X036692Y015480D01*
X036679Y015508D01*
X036669Y015538D01*
X036663Y015569D01*
X036661Y015600D01*
X036911Y002250D02*
X036913Y002281D01*
X036919Y002312D01*
X036929Y002342D01*
X036942Y002370D01*
X036959Y002397D01*
X036979Y002421D01*
X037002Y002443D01*
X037027Y002461D01*
X037055Y002476D01*
X037084Y002488D01*
X037114Y002496D01*
X037145Y002500D01*
X037177Y002500D01*
X037208Y002496D01*
X037238Y002488D01*
X037267Y002476D01*
X037295Y002461D01*
X037320Y002443D01*
X037343Y002421D01*
X037363Y002397D01*
X037380Y002370D01*
X037393Y002342D01*
X037403Y002312D01*
X037409Y002281D01*
X037411Y002250D01*
X037409Y002219D01*
X037403Y002188D01*
X037393Y002158D01*
X037380Y002130D01*
X037363Y002103D01*
X037343Y002079D01*
X037320Y002057D01*
X037295Y002039D01*
X037267Y002024D01*
X037238Y002012D01*
X037208Y002004D01*
X037177Y002000D01*
X037145Y002000D01*
X037114Y002004D01*
X037084Y002012D01*
X037055Y002024D01*
X037027Y002039D01*
X037002Y002057D01*
X036979Y002079D01*
X036959Y002103D01*
X036942Y002130D01*
X036929Y002158D01*
X036919Y002188D01*
X036913Y002219D01*
X036911Y002250D01*
X028211Y002250D02*
X028213Y002281D01*
X028219Y002312D01*
X028229Y002342D01*
X028242Y002370D01*
X028259Y002397D01*
X028279Y002421D01*
X028302Y002443D01*
X028327Y002461D01*
X028355Y002476D01*
X028384Y002488D01*
X028414Y002496D01*
X028445Y002500D01*
X028477Y002500D01*
X028508Y002496D01*
X028538Y002488D01*
X028567Y002476D01*
X028595Y002461D01*
X028620Y002443D01*
X028643Y002421D01*
X028663Y002397D01*
X028680Y002370D01*
X028693Y002342D01*
X028703Y002312D01*
X028709Y002281D01*
X028711Y002250D01*
X028709Y002219D01*
X028703Y002188D01*
X028693Y002158D01*
X028680Y002130D01*
X028663Y002103D01*
X028643Y002079D01*
X028620Y002057D01*
X028595Y002039D01*
X028567Y002024D01*
X028538Y002012D01*
X028508Y002004D01*
X028477Y002000D01*
X028445Y002000D01*
X028414Y002004D01*
X028384Y002012D01*
X028355Y002024D01*
X028327Y002039D01*
X028302Y002057D01*
X028279Y002079D01*
X028259Y002103D01*
X028242Y002130D01*
X028229Y002158D01*
X028219Y002188D01*
X028213Y002219D01*
X028211Y002250D01*
D21*
X005601Y007500D03*
M02*
