G75*
%MOIN*%
%OFA0B0*%
%FSLAX24Y24*%
%IPPOS*%
%LPD*%
%AMOC8*
5,1,8,0,0,1.08239X$1,22.5*
%
%ADD10C,0.0060*%
%ADD11C,0.0051*%
%ADD12C,0.0050*%
%ADD13C,0.0120*%
%ADD14C,0.0080*%
%ADD15C,0.0100*%
%ADD16C,0.0197*%
%ADD17R,0.0300X0.0180*%
%ADD18R,0.0180X0.0300*%
%ADD19C,0.0040*%
%ADD20C,0.0020*%
D10*
X013957Y005039D02*
X013957Y005152D01*
X014013Y005209D01*
X014183Y005209D01*
X014070Y005209D02*
X013957Y005322D01*
X014183Y005322D02*
X014183Y004982D01*
X014013Y004982D01*
X013957Y005039D01*
X014325Y004982D02*
X014552Y004982D01*
X014552Y005322D01*
X014325Y005322D01*
X014438Y005152D02*
X014552Y005152D01*
X014693Y005039D02*
X014920Y005266D01*
X014920Y005322D01*
X014693Y005322D01*
X015061Y005322D02*
X015288Y005322D01*
X015288Y005266D01*
X015061Y005039D01*
X015061Y004982D01*
X015288Y004982D01*
X015430Y004982D02*
X015430Y005266D01*
X015486Y005322D01*
X015600Y005322D01*
X015657Y005266D01*
X015657Y004982D01*
X015798Y005039D02*
X015798Y005095D01*
X015855Y005152D01*
X016025Y005152D01*
X016025Y004982D02*
X015855Y004982D01*
X015798Y005039D01*
X015855Y005152D02*
X015798Y005209D01*
X015798Y005266D01*
X015855Y005322D01*
X016025Y005322D01*
X016025Y004982D01*
X014920Y004982D02*
X014693Y004982D01*
X014693Y005039D01*
X012220Y005286D02*
X012163Y005230D01*
X012220Y005286D02*
X012220Y005400D01*
X012163Y005457D01*
X012107Y005457D01*
X012050Y005400D01*
X012050Y005343D01*
X012050Y005400D02*
X011993Y005457D01*
X011936Y005457D01*
X011880Y005400D01*
X011880Y005286D01*
X011936Y005230D01*
X011880Y005598D02*
X012107Y005598D01*
X012220Y005712D01*
X012107Y005825D01*
X011880Y005825D01*
X011936Y005966D02*
X011880Y006023D01*
X011880Y006137D01*
X011936Y006193D01*
X011993Y006193D01*
X012050Y006137D01*
X012107Y006193D01*
X012163Y006193D01*
X012220Y006137D01*
X012220Y006023D01*
X012163Y005966D01*
X012050Y006080D02*
X012050Y006137D01*
X011880Y006464D02*
X012220Y006464D01*
X012220Y006634D01*
X012163Y006691D01*
X011936Y006691D01*
X011880Y006634D01*
X011880Y006464D01*
X011936Y006832D02*
X011880Y006889D01*
X011880Y007002D01*
X011936Y007059D01*
X012163Y007059D01*
X012220Y007002D01*
X012220Y006889D01*
X012163Y006832D01*
X011936Y006832D01*
X011936Y008230D02*
X012163Y008230D01*
X012220Y008286D01*
X012220Y008400D01*
X012163Y008457D01*
X012050Y008457D01*
X012050Y008343D01*
X011936Y008230D02*
X011880Y008286D01*
X011880Y008400D01*
X011936Y008457D01*
X011880Y008598D02*
X012220Y008598D01*
X012220Y008825D02*
X011880Y008598D01*
X011880Y008825D02*
X012220Y008825D01*
X012220Y008966D02*
X012220Y009137D01*
X012163Y009193D01*
X011936Y009193D01*
X011880Y009137D01*
X011880Y008966D01*
X012220Y008966D01*
X011520Y009482D02*
X011180Y009482D01*
X011180Y009652D01*
X011236Y009709D01*
X011463Y009709D01*
X011520Y009652D01*
X011520Y009482D01*
X011520Y009851D02*
X011180Y009851D01*
X011350Y009851D02*
X011350Y010077D01*
X011180Y010077D02*
X011520Y010077D01*
X011520Y010332D02*
X011180Y010332D01*
X011180Y010219D02*
X011180Y010446D01*
X011236Y010587D02*
X011180Y010644D01*
X011180Y010757D01*
X011236Y010814D01*
X011293Y010814D01*
X011520Y010587D01*
X011520Y010814D01*
X011520Y010955D02*
X011293Y011182D01*
X011236Y011182D01*
X011180Y011126D01*
X011180Y011012D01*
X011236Y010955D01*
X011520Y010955D02*
X011520Y011182D01*
X012527Y011016D02*
X012527Y010959D01*
X012584Y010902D01*
X012754Y010902D01*
X012584Y010902D02*
X012527Y010845D01*
X012527Y010789D01*
X012584Y010732D01*
X012754Y010732D01*
X012754Y011072D01*
X012584Y011072D01*
X012527Y011016D01*
X013127Y011016D02*
X013127Y010902D01*
X013241Y010902D01*
X013354Y010789D02*
X013354Y011016D01*
X013297Y011072D01*
X013184Y011072D01*
X013127Y011016D01*
X013727Y011072D02*
X013841Y010959D01*
X013784Y010959D02*
X013954Y010959D01*
X013954Y011072D02*
X013954Y010732D01*
X013784Y010732D01*
X013727Y010789D01*
X013727Y010902D01*
X013784Y010959D01*
X013354Y010789D02*
X013297Y010732D01*
X013184Y010732D01*
X013127Y010789D01*
X018533Y012039D02*
X018590Y011982D01*
X018703Y011982D01*
X018760Y012039D01*
X018902Y012039D02*
X019128Y012266D01*
X019072Y012322D01*
X018958Y012322D01*
X018902Y012266D01*
X018902Y012039D01*
X018958Y011982D01*
X019072Y011982D01*
X019128Y012039D01*
X019128Y012266D01*
X019270Y012266D02*
X019270Y012209D01*
X019327Y012152D01*
X019497Y012152D01*
X019497Y012266D01*
X019440Y012322D01*
X019327Y012322D01*
X019270Y012266D01*
X019383Y012039D02*
X019497Y012152D01*
X019638Y012095D02*
X019638Y012039D01*
X019695Y011982D01*
X019808Y011982D01*
X019865Y012039D01*
X020007Y012039D02*
X020063Y011982D01*
X020177Y011982D01*
X020233Y012039D01*
X020233Y012095D01*
X020177Y012152D01*
X020063Y012152D01*
X020007Y012209D01*
X020007Y012266D01*
X020063Y012322D01*
X020177Y012322D01*
X020233Y012266D01*
X020375Y012266D02*
X020375Y012152D01*
X020488Y012152D01*
X020375Y012039D02*
X020432Y011982D01*
X020545Y011982D01*
X020602Y012039D01*
X020602Y012266D01*
X020545Y012322D01*
X020432Y012322D01*
X020375Y012266D01*
X020743Y011982D02*
X020970Y011982D01*
X020857Y011982D02*
X020857Y012322D01*
X019865Y012322D02*
X019638Y012095D01*
X019638Y012322D02*
X019865Y012322D01*
X019383Y012039D02*
X019270Y011982D01*
X018760Y012322D02*
X018533Y012095D01*
X018533Y012039D01*
X018533Y012322D02*
X018760Y012322D01*
X019645Y013482D02*
X019758Y013482D01*
X019815Y013539D01*
X019957Y013482D02*
X019957Y013822D01*
X020183Y013482D01*
X020183Y013822D01*
X020438Y013822D02*
X020438Y013482D01*
X020325Y013482D02*
X020552Y013482D01*
X020693Y013539D02*
X020693Y013595D01*
X020750Y013652D01*
X020920Y013652D01*
X020920Y013482D02*
X020750Y013482D01*
X020693Y013539D01*
X020750Y013652D02*
X020693Y013709D01*
X020693Y013766D01*
X020750Y013822D01*
X020920Y013822D01*
X020920Y013482D01*
X019815Y013822D02*
X019588Y013595D01*
X019588Y013539D01*
X019645Y013482D01*
X019588Y013822D02*
X019815Y013822D01*
X019550Y014452D02*
X019200Y014452D01*
X019200Y014552D01*
X018900Y014552D01*
X018900Y014752D01*
X018800Y014552D02*
X018800Y015952D01*
X019250Y015952D01*
X021700Y015952D01*
X021700Y014552D01*
X021600Y014552D02*
X021600Y014752D01*
X021600Y014552D02*
X021300Y014552D01*
X021300Y014452D01*
X021000Y014452D01*
X021000Y014552D01*
X020550Y014552D01*
X020550Y014652D01*
X019950Y014652D01*
X019950Y014552D01*
X019550Y014552D01*
X019550Y014452D01*
X017900Y014552D02*
X017900Y015952D01*
X015450Y015952D01*
X015450Y016052D01*
X015950Y016052D01*
X015950Y016202D01*
X016950Y016202D01*
X016950Y016052D01*
X015950Y016052D01*
X016200Y015852D02*
X015100Y015852D01*
X015100Y015352D01*
X016200Y015452D02*
X016200Y015852D01*
X016700Y015852D01*
X016700Y015452D01*
X016200Y015452D01*
X016700Y015852D02*
X017800Y015852D01*
X017800Y015352D01*
X018900Y015352D02*
X018900Y015852D01*
X020000Y015852D01*
X020000Y015452D01*
X020500Y015452D01*
X020500Y015852D01*
X020000Y015852D01*
X019750Y016052D02*
X019250Y016052D01*
X019250Y015952D01*
X019750Y016052D02*
X019750Y016202D01*
X020750Y016202D01*
X020750Y016052D01*
X019750Y016052D01*
X020500Y015852D02*
X021600Y015852D01*
X021600Y015352D01*
X022350Y015752D02*
X022350Y013902D01*
X025950Y013902D01*
X025950Y015752D01*
X022350Y015752D01*
X021250Y015952D02*
X021250Y016052D01*
X020750Y016052D01*
X017450Y016052D02*
X016950Y016052D01*
X017450Y016052D02*
X017450Y015952D01*
X015450Y015952D02*
X015000Y015952D01*
X015000Y014552D01*
X015100Y014552D02*
X015100Y014752D01*
X015100Y014552D02*
X015400Y014552D01*
X015400Y014452D01*
X015750Y014452D01*
X015750Y014552D01*
X016150Y014552D01*
X016150Y014652D01*
X016750Y014652D01*
X016750Y014552D01*
X017200Y014552D01*
X017200Y014452D01*
X017500Y014452D01*
X017500Y014552D01*
X017800Y014552D01*
X017800Y014752D01*
X017070Y013822D02*
X016900Y013822D01*
X016843Y013766D01*
X016843Y013709D01*
X016900Y013652D01*
X017070Y013652D01*
X017070Y013482D02*
X016900Y013482D01*
X016843Y013539D01*
X016843Y013595D01*
X016900Y013652D01*
X017070Y013822D02*
X017070Y013482D01*
X016702Y013482D02*
X016475Y013482D01*
X016588Y013482D02*
X016588Y013822D01*
X016333Y013822D02*
X016333Y013482D01*
X016107Y013822D01*
X016107Y013482D01*
X015965Y013595D02*
X015852Y013482D01*
X015852Y013822D01*
X015965Y013822D02*
X015738Y013822D01*
X022950Y014352D02*
X023750Y014352D01*
X023750Y014202D01*
X023700Y014152D01*
X023700Y014552D01*
X023750Y014502D01*
X023750Y014352D01*
X023900Y014352D01*
X023850Y014402D01*
X023800Y014452D01*
X023750Y014502D01*
X023800Y014452D02*
X023800Y014252D01*
X023850Y014302D01*
X023850Y014402D01*
X023900Y014352D02*
X023850Y014302D01*
X023800Y014252D02*
X023750Y014202D01*
X024957Y013666D02*
X025013Y013722D01*
X025127Y013722D01*
X025183Y013666D01*
X025127Y013552D02*
X025013Y013552D01*
X024957Y013609D01*
X024957Y013666D01*
X025127Y013552D02*
X025183Y013495D01*
X025183Y013439D01*
X025127Y013382D01*
X025013Y013382D01*
X024957Y013439D01*
X025325Y013439D02*
X025382Y013382D01*
X025495Y013382D01*
X025552Y013439D01*
X025552Y013666D01*
X025495Y013722D01*
X025382Y013722D01*
X025325Y013666D01*
X025325Y013552D01*
X025438Y013552D01*
X025693Y013382D02*
X025920Y013382D01*
X025807Y013382D02*
X025807Y013722D01*
X026150Y013902D02*
X026150Y015752D01*
X029750Y015752D01*
X029750Y013902D01*
X026150Y013902D01*
X027500Y014152D02*
X027500Y014552D01*
X027550Y014502D01*
X027550Y014352D01*
X026750Y014352D01*
X027500Y014152D02*
X027550Y014202D01*
X027550Y014352D01*
X027700Y014352D01*
X027650Y014402D01*
X027600Y014452D01*
X027550Y014502D01*
X027600Y014452D02*
X027600Y014252D01*
X027650Y014302D01*
X027650Y014402D01*
X027700Y014352D02*
X027650Y014302D01*
X027600Y014252D02*
X027550Y014202D01*
X029125Y013722D02*
X029238Y013609D01*
X029125Y013666D02*
X029125Y013439D01*
X029182Y013382D01*
X029295Y013382D01*
X029352Y013439D01*
X029352Y013666D01*
X029295Y013722D01*
X029182Y013722D01*
X029125Y013666D01*
X029493Y013722D02*
X029493Y013382D01*
X029607Y013495D01*
X029720Y013382D01*
X029720Y013722D01*
X030243Y014282D02*
X030470Y014622D01*
X030611Y014622D02*
X030725Y014509D01*
X030668Y014509D02*
X030838Y014509D01*
X030838Y014622D02*
X030838Y014282D01*
X030668Y014282D01*
X030611Y014339D01*
X030611Y014452D01*
X030668Y014509D01*
X030470Y014282D02*
X030243Y014622D01*
X031243Y014622D02*
X031470Y014282D01*
X031611Y014282D02*
X031838Y014282D01*
X031725Y014282D02*
X031725Y014622D01*
X031470Y014622D02*
X031243Y014282D01*
X032109Y014339D02*
X032109Y014566D01*
X032166Y014622D01*
X032336Y014622D01*
X032336Y014282D01*
X032166Y014282D01*
X032109Y014339D01*
X032477Y014282D02*
X032477Y014622D01*
X032704Y014282D01*
X032704Y014622D01*
X032846Y014566D02*
X032846Y014452D01*
X032959Y014452D01*
X032846Y014339D02*
X032902Y014282D01*
X033016Y014282D01*
X033072Y014339D01*
X033072Y014566D01*
X033016Y014622D01*
X032902Y014622D01*
X032846Y014566D01*
X036809Y013016D02*
X036809Y012789D01*
X036866Y012732D01*
X037036Y012732D01*
X037036Y013072D01*
X036866Y013072D01*
X036809Y013016D01*
X037177Y013072D02*
X037177Y012732D01*
X037404Y012732D02*
X037177Y013072D01*
X037404Y013072D02*
X037404Y012732D01*
X037546Y012789D02*
X037602Y012732D01*
X037716Y012732D01*
X037772Y012789D01*
X037772Y013016D01*
X037716Y013072D01*
X037602Y013072D01*
X037546Y013016D01*
X037546Y012902D01*
X037659Y012902D01*
X038709Y012959D02*
X038709Y012732D01*
X038709Y012959D02*
X038822Y013072D01*
X038936Y012959D01*
X038936Y012732D01*
X039077Y012732D02*
X039304Y012732D01*
X039304Y012902D01*
X039191Y012845D01*
X039134Y012845D01*
X039077Y012902D01*
X039077Y013016D01*
X039134Y013072D01*
X039247Y013072D01*
X039304Y013016D01*
X039446Y012902D02*
X039672Y012902D01*
X039559Y012789D02*
X039559Y013016D01*
X043580Y014630D02*
X043580Y014800D01*
X043636Y014857D01*
X043750Y014857D01*
X043807Y014800D01*
X043807Y014630D01*
X043920Y014630D02*
X043580Y014630D01*
X043580Y014998D02*
X043920Y014998D01*
X043807Y015112D01*
X043920Y015225D01*
X043580Y015225D01*
X043580Y015366D02*
X043580Y015537D01*
X043636Y015593D01*
X043750Y015593D01*
X043807Y015537D01*
X043807Y015366D01*
X043920Y015366D02*
X043580Y015366D01*
X043807Y015480D02*
X043920Y015593D01*
X032093Y017415D02*
X031986Y017308D01*
X031773Y017308D01*
X031666Y017415D01*
X031666Y017629D02*
X031880Y017735D01*
X031986Y017735D01*
X032093Y017629D01*
X032093Y017415D01*
X031666Y017629D02*
X031666Y017949D01*
X032093Y017949D01*
X031235Y017949D02*
X031022Y017735D01*
X030806Y017415D02*
X030699Y017415D01*
X030699Y017308D01*
X030806Y017308D01*
X030806Y017415D01*
X031022Y017308D02*
X031449Y017308D01*
X031235Y017308D02*
X031235Y017949D01*
X030375Y017949D02*
X030055Y017629D01*
X030482Y017629D01*
X030375Y017949D02*
X030375Y017308D01*
X026820Y012822D02*
X026820Y012482D01*
X026707Y012595D01*
X026593Y012482D01*
X026593Y012822D01*
X026452Y012766D02*
X026395Y012822D01*
X026282Y012822D01*
X026225Y012766D01*
X026225Y012539D01*
X026282Y012482D01*
X026395Y012482D01*
X026452Y012539D01*
X026452Y012766D01*
X026338Y012709D02*
X026225Y012822D01*
X052253Y009280D02*
X052253Y008853D01*
X052574Y008853D01*
X052467Y009067D01*
X052467Y009174D01*
X052574Y009280D01*
X052787Y009280D01*
X052894Y009174D01*
X052894Y008960D01*
X052787Y008853D01*
X052787Y008638D02*
X052894Y008638D01*
X052894Y008531D01*
X052787Y008531D01*
X052787Y008638D01*
X052894Y008313D02*
X052894Y007886D01*
X052894Y008100D02*
X052253Y008100D01*
X052467Y007886D01*
D11*
X053024Y002076D02*
X053276Y002076D01*
X053150Y001078D01*
X053252Y002076D01*
X053201Y002076D02*
X053150Y001078D01*
X053048Y002076D01*
X053024Y002076D02*
X053150Y001078D01*
X053099Y002076D01*
X053150Y001078D02*
X053150Y016027D01*
X053252Y015029D01*
X053276Y015029D02*
X053150Y016027D01*
X053048Y015029D01*
X053024Y015029D02*
X053276Y015029D01*
X053201Y015029D02*
X053150Y016027D01*
X053099Y015029D01*
X053024Y015029D02*
X053150Y016027D01*
X053918Y016052D02*
X051750Y016052D01*
X051750Y017820D01*
X051724Y017052D02*
X050726Y017155D01*
X050726Y017178D02*
X050726Y016927D01*
X051724Y017052D01*
X050726Y016950D01*
X050726Y017001D02*
X051724Y017052D01*
X050726Y017103D01*
X050726Y017178D02*
X051724Y017052D01*
X010276Y017052D01*
X011274Y016950D01*
X011274Y016927D02*
X010276Y017052D01*
X011274Y017155D01*
X011274Y017178D02*
X011274Y016927D01*
X011274Y017001D02*
X010276Y017052D01*
X011274Y017103D01*
X011274Y017178D02*
X010276Y017052D01*
X010250Y017820D02*
X010250Y016052D01*
X051750Y001052D02*
X053918Y001052D01*
D12*
X037855Y003527D02*
X037675Y003527D01*
X037855Y003707D01*
X037855Y003752D01*
X037810Y003797D01*
X037720Y003797D01*
X037675Y003752D01*
X037561Y003707D02*
X037561Y003527D01*
X037561Y003662D02*
X037380Y003662D01*
X037380Y003707D02*
X037380Y003527D01*
X037380Y003707D02*
X037470Y003797D01*
X037561Y003707D01*
X037055Y003707D02*
X037010Y003662D01*
X037055Y003617D01*
X037055Y003572D01*
X037010Y003527D01*
X036920Y003527D01*
X036875Y003572D01*
X036761Y003527D02*
X036761Y003707D01*
X036670Y003797D01*
X036580Y003707D01*
X036580Y003527D01*
X036580Y003662D02*
X036761Y003662D01*
X036875Y003752D02*
X036920Y003797D01*
X037010Y003797D01*
X037055Y003752D01*
X037055Y003707D01*
X037010Y003662D02*
X036965Y003662D01*
X033445Y003713D02*
X033265Y003713D01*
X033175Y003623D01*
X033265Y003533D01*
X033445Y003533D01*
X033310Y003533D02*
X033310Y003713D01*
X033220Y003827D02*
X033175Y003872D01*
X033175Y003962D01*
X033220Y004007D01*
X033265Y004007D01*
X033445Y003827D01*
X033445Y004007D01*
X032645Y003962D02*
X032645Y003872D01*
X032600Y003827D01*
X032645Y003713D02*
X032465Y003713D01*
X032375Y003623D01*
X032465Y003533D01*
X032645Y003533D01*
X032510Y003533D02*
X032510Y003713D01*
X032420Y003827D02*
X032375Y003872D01*
X032375Y003962D01*
X032420Y004007D01*
X032465Y004007D01*
X032510Y003962D01*
X032555Y004007D01*
X032600Y004007D01*
X032645Y003962D01*
X032510Y003962D02*
X032510Y003917D01*
X031895Y003875D02*
X031850Y003830D01*
X031895Y003875D02*
X031895Y003965D01*
X031850Y004010D01*
X031760Y004010D01*
X031715Y003965D01*
X031715Y003920D01*
X031760Y003830D01*
X031625Y003830D01*
X031625Y004010D01*
X031625Y004125D02*
X031805Y004125D01*
X031895Y004215D01*
X031805Y004305D01*
X031625Y004305D01*
X031095Y004260D02*
X031095Y004125D01*
X030825Y004125D01*
X030825Y004260D01*
X030870Y004305D01*
X031050Y004305D01*
X031095Y004260D01*
X031095Y004010D02*
X030825Y004010D01*
X030825Y003830D02*
X031095Y004010D01*
X031095Y003830D02*
X030825Y003830D01*
X030870Y003715D02*
X030825Y003670D01*
X030825Y003580D01*
X030870Y003535D01*
X031050Y003535D01*
X031095Y003580D01*
X031095Y003670D01*
X031050Y003715D01*
X030960Y003715D01*
X030960Y003625D01*
X031670Y003625D02*
X031850Y003625D01*
X031760Y003535D02*
X031760Y003715D01*
X029145Y003670D02*
X029145Y003580D01*
X029100Y003535D01*
X029010Y003580D02*
X029010Y003670D01*
X029055Y003715D01*
X029100Y003715D01*
X029145Y003670D01*
X029010Y003580D02*
X028965Y003535D01*
X028920Y003535D01*
X028875Y003580D01*
X028875Y003670D01*
X028920Y003715D01*
X028920Y003830D02*
X029100Y003830D01*
X029145Y003875D01*
X029145Y003965D01*
X029100Y004010D01*
X029145Y004125D02*
X029145Y004305D01*
X029145Y004125D02*
X028875Y004125D01*
X028920Y004010D02*
X028875Y003965D01*
X028875Y003875D01*
X028920Y003830D01*
X028395Y003830D02*
X028395Y003965D01*
X028350Y004010D01*
X028170Y004010D01*
X028125Y003965D01*
X028125Y003830D01*
X028395Y003830D01*
X028350Y003715D02*
X028395Y003670D01*
X028395Y003580D01*
X028350Y003535D01*
X028260Y003580D02*
X028260Y003670D01*
X028305Y003715D01*
X028350Y003715D01*
X028260Y003580D02*
X028215Y003535D01*
X028170Y003535D01*
X028125Y003580D01*
X028125Y003670D01*
X028170Y003715D01*
X027595Y003875D02*
X027550Y003830D01*
X027595Y003875D02*
X027595Y003965D01*
X027550Y004010D01*
X027460Y004010D01*
X027415Y003965D01*
X027415Y003920D01*
X027460Y003830D01*
X027325Y003830D01*
X027325Y004010D01*
X027325Y004125D02*
X027505Y004125D01*
X027595Y004215D01*
X027505Y004305D01*
X027325Y004305D01*
X026795Y004260D02*
X026795Y004125D01*
X026525Y004125D01*
X026525Y004260D01*
X026570Y004305D01*
X026750Y004305D01*
X026795Y004260D01*
X026795Y004010D02*
X026525Y004010D01*
X026525Y003830D02*
X026795Y004010D01*
X026795Y003830D02*
X026525Y003830D01*
X026570Y003715D02*
X026525Y003670D01*
X026525Y003580D01*
X026570Y003535D01*
X026750Y003535D01*
X026795Y003580D01*
X026795Y003670D01*
X026750Y003715D01*
X026660Y003715D01*
X026660Y003625D01*
X027370Y003625D02*
X027550Y003625D01*
X027460Y003535D02*
X027460Y003715D01*
X028125Y004215D02*
X028215Y004125D01*
X028395Y004125D01*
X028260Y004125D02*
X028260Y004305D01*
X028215Y004305D02*
X028395Y004305D01*
X028215Y004305D02*
X028125Y004215D01*
X024895Y004125D02*
X024895Y004305D01*
X024895Y004125D02*
X024625Y004125D01*
X024670Y004010D02*
X024625Y003965D01*
X024625Y003875D01*
X024670Y003830D01*
X024850Y003830D01*
X024895Y003875D01*
X024895Y003965D01*
X024850Y004010D01*
X024850Y003715D02*
X024895Y003670D01*
X024895Y003580D01*
X024850Y003535D01*
X024760Y003580D02*
X024760Y003670D01*
X024805Y003715D01*
X024850Y003715D01*
X024760Y003580D02*
X024715Y003535D01*
X024670Y003535D01*
X024625Y003580D01*
X024625Y003670D01*
X024670Y003715D01*
X024095Y003670D02*
X024095Y003580D01*
X024050Y003535D01*
X023960Y003580D02*
X023960Y003670D01*
X024005Y003715D01*
X024050Y003715D01*
X024095Y003670D01*
X024095Y003830D02*
X024095Y003965D01*
X024050Y004010D01*
X023870Y004010D01*
X023825Y003965D01*
X023825Y003830D01*
X024095Y003830D01*
X023870Y003715D02*
X023825Y003670D01*
X023825Y003580D01*
X023870Y003535D01*
X023915Y003535D01*
X023960Y003580D01*
X023250Y003625D02*
X023070Y003625D01*
X023160Y003535D02*
X023160Y003715D01*
X023160Y003830D02*
X023115Y003920D01*
X023115Y003965D01*
X023160Y004010D01*
X023250Y004010D01*
X023295Y003965D01*
X023295Y003875D01*
X023250Y003830D01*
X023160Y003830D02*
X023025Y003830D01*
X023025Y004010D01*
X023025Y004125D02*
X023205Y004125D01*
X023295Y004215D01*
X023205Y004305D01*
X023025Y004305D01*
X022495Y004260D02*
X022495Y004125D01*
X022225Y004125D01*
X022225Y004260D01*
X022270Y004305D01*
X022450Y004305D01*
X022495Y004260D01*
X022495Y004010D02*
X022225Y004010D01*
X022225Y003830D02*
X022495Y004010D01*
X022495Y003830D02*
X022225Y003830D01*
X022270Y003715D02*
X022225Y003670D01*
X022225Y003580D01*
X022270Y003535D01*
X022450Y003535D01*
X022495Y003580D01*
X022495Y003670D01*
X022450Y003715D01*
X022360Y003715D01*
X022360Y003625D01*
X023825Y004215D02*
X023915Y004125D01*
X024095Y004125D01*
X023960Y004125D02*
X023960Y004305D01*
X023915Y004305D02*
X024095Y004305D01*
X023915Y004305D02*
X023825Y004215D01*
X020595Y004125D02*
X020595Y004305D01*
X020595Y004125D02*
X020325Y004125D01*
X020370Y004010D02*
X020325Y003965D01*
X020325Y003875D01*
X020370Y003830D01*
X020550Y003830D01*
X020595Y003875D01*
X020595Y003965D01*
X020550Y004010D01*
X020550Y003715D02*
X020505Y003715D01*
X020460Y003670D01*
X020460Y003580D01*
X020415Y003535D01*
X020370Y003535D01*
X020325Y003580D01*
X020325Y003670D01*
X020370Y003715D01*
X020550Y003715D02*
X020595Y003670D01*
X020595Y003580D01*
X020550Y003535D01*
X019745Y003580D02*
X019700Y003535D01*
X019745Y003580D02*
X019745Y003670D01*
X019700Y003715D01*
X019655Y003715D01*
X019610Y003670D01*
X019610Y003580D01*
X019565Y003535D01*
X019520Y003535D01*
X019475Y003580D01*
X019475Y003670D01*
X019520Y003715D01*
X019475Y003830D02*
X019475Y003965D01*
X019520Y004010D01*
X019700Y004010D01*
X019745Y003965D01*
X019745Y003830D01*
X019475Y003830D01*
X018995Y003875D02*
X018950Y003830D01*
X018995Y003875D02*
X018995Y003965D01*
X018950Y004010D01*
X018860Y004010D01*
X018815Y003965D01*
X018815Y003920D01*
X018860Y003830D01*
X018725Y003830D01*
X018725Y004010D01*
X018725Y004125D02*
X018905Y004125D01*
X018995Y004215D01*
X018905Y004305D01*
X018725Y004305D01*
X018195Y004260D02*
X018195Y004125D01*
X017925Y004125D01*
X017925Y004260D01*
X017970Y004305D01*
X018150Y004305D01*
X018195Y004260D01*
X018195Y004010D02*
X017925Y004010D01*
X017925Y003830D02*
X018195Y004010D01*
X018195Y003830D02*
X017925Y003830D01*
X017970Y003715D02*
X017925Y003670D01*
X017925Y003580D01*
X017970Y003535D01*
X018150Y003535D01*
X018195Y003580D01*
X018195Y003670D01*
X018150Y003715D01*
X018060Y003715D01*
X018060Y003625D01*
X018770Y003625D02*
X018950Y003625D01*
X018860Y003535D02*
X018860Y003715D01*
X019475Y004215D02*
X019565Y004125D01*
X019745Y004125D01*
X019610Y004125D02*
X019610Y004305D01*
X019565Y004305D02*
X019745Y004305D01*
X019565Y004305D02*
X019475Y004215D01*
X016245Y004175D02*
X016245Y004355D01*
X016245Y004175D02*
X015975Y004175D01*
X016020Y004060D02*
X015975Y004015D01*
X015975Y003925D01*
X016020Y003880D01*
X016200Y003880D01*
X016245Y003925D01*
X016245Y004015D01*
X016200Y004060D01*
X015495Y004125D02*
X015315Y004125D01*
X015225Y004215D01*
X015315Y004305D01*
X015495Y004305D01*
X015360Y004305D02*
X015360Y004125D01*
X015450Y004010D02*
X015270Y004010D01*
X015225Y003965D01*
X015225Y003830D01*
X015495Y003830D01*
X015495Y003965D01*
X015450Y004010D01*
X015450Y003715D02*
X015495Y003670D01*
X015495Y003580D01*
X015450Y003535D01*
X015360Y003580D02*
X015360Y003670D01*
X015405Y003715D01*
X015450Y003715D01*
X015360Y003580D02*
X015315Y003535D01*
X015270Y003535D01*
X015225Y003580D01*
X015225Y003670D01*
X015270Y003715D01*
X014695Y003875D02*
X014650Y003830D01*
X014695Y003875D02*
X014695Y003965D01*
X014650Y004010D01*
X014560Y004010D01*
X014515Y003965D01*
X014515Y003920D01*
X014560Y003830D01*
X014425Y003830D01*
X014425Y004010D01*
X014425Y004125D02*
X014605Y004125D01*
X014695Y004215D01*
X014605Y004305D01*
X014425Y004305D01*
X013895Y004260D02*
X013895Y004125D01*
X013625Y004125D01*
X013625Y004260D01*
X013670Y004305D01*
X013850Y004305D01*
X013895Y004260D01*
X013895Y004010D02*
X013625Y004010D01*
X013625Y003830D02*
X013895Y004010D01*
X013895Y003830D02*
X013625Y003830D01*
X013670Y003715D02*
X013625Y003670D01*
X013625Y003580D01*
X013670Y003535D01*
X013850Y003535D01*
X013895Y003580D01*
X013895Y003670D01*
X013850Y003715D01*
X013760Y003715D01*
X013760Y003625D01*
X014470Y003625D02*
X014650Y003625D01*
X014560Y003535D02*
X014560Y003715D01*
X015975Y003720D02*
X015975Y003630D01*
X016020Y003585D01*
X016065Y003585D01*
X016110Y003630D01*
X016110Y003720D01*
X016155Y003765D01*
X016200Y003765D01*
X016245Y003720D01*
X016245Y003630D01*
X016200Y003585D01*
X016020Y003765D02*
X015975Y003720D01*
X018450Y008252D02*
X018350Y008352D01*
X018250Y008452D01*
X018450Y008652D01*
X018650Y008452D02*
X018450Y008252D01*
X018039Y009852D02*
X018041Y009937D01*
X018047Y010022D01*
X018057Y010106D01*
X018071Y010190D01*
X018089Y010273D01*
X018110Y010355D01*
X018136Y010436D01*
X018165Y010516D01*
X018198Y010594D01*
X018234Y010670D01*
X018275Y010745D01*
X018318Y010818D01*
X018365Y010889D01*
X018415Y010957D01*
X018469Y011023D01*
X018525Y011087D01*
X018585Y011147D01*
X018647Y011205D01*
X018711Y011260D01*
X018779Y011312D01*
X018848Y011361D01*
X018920Y011406D01*
X018994Y011448D01*
X019070Y011486D01*
X019147Y011521D01*
X019226Y011552D01*
X019307Y011580D01*
X019388Y011603D01*
X019471Y011623D01*
X019554Y011639D01*
X019638Y011651D01*
X019723Y011659D01*
X019808Y011663D01*
X019892Y011663D01*
X019977Y011659D01*
X020062Y011651D01*
X020146Y011639D01*
X020229Y011623D01*
X020312Y011603D01*
X020393Y011580D01*
X020474Y011552D01*
X020553Y011521D01*
X020630Y011486D01*
X020706Y011448D01*
X020780Y011406D01*
X020852Y011361D01*
X020921Y011312D01*
X020989Y011260D01*
X021053Y011205D01*
X021115Y011147D01*
X021175Y011087D01*
X021231Y011023D01*
X021285Y010957D01*
X021335Y010889D01*
X021382Y010818D01*
X021425Y010745D01*
X021466Y010670D01*
X021502Y010594D01*
X021535Y010516D01*
X021564Y010436D01*
X021590Y010355D01*
X021611Y010273D01*
X021629Y010190D01*
X021643Y010106D01*
X021653Y010022D01*
X021659Y009937D01*
X021661Y009852D01*
X021659Y009767D01*
X021653Y009682D01*
X021643Y009598D01*
X021629Y009514D01*
X021611Y009431D01*
X021590Y009349D01*
X021564Y009268D01*
X021535Y009188D01*
X021502Y009110D01*
X021466Y009034D01*
X021425Y008959D01*
X021382Y008886D01*
X021335Y008815D01*
X021285Y008747D01*
X021231Y008681D01*
X021175Y008617D01*
X021115Y008557D01*
X021053Y008499D01*
X020989Y008444D01*
X020921Y008392D01*
X020852Y008343D01*
X020780Y008298D01*
X020706Y008256D01*
X020630Y008218D01*
X020553Y008183D01*
X020474Y008152D01*
X020393Y008124D01*
X020312Y008101D01*
X020229Y008081D01*
X020146Y008065D01*
X020062Y008053D01*
X019977Y008045D01*
X019892Y008041D01*
X019808Y008041D01*
X019723Y008045D01*
X019638Y008053D01*
X019554Y008065D01*
X019471Y008081D01*
X019388Y008101D01*
X019307Y008124D01*
X019226Y008152D01*
X019147Y008183D01*
X019070Y008218D01*
X018994Y008256D01*
X018920Y008298D01*
X018848Y008343D01*
X018779Y008392D01*
X018711Y008444D01*
X018647Y008499D01*
X018585Y008557D01*
X018525Y008617D01*
X018469Y008681D01*
X018415Y008747D01*
X018365Y008815D01*
X018318Y008886D01*
X018275Y008959D01*
X018234Y009034D01*
X018198Y009110D01*
X018165Y009188D01*
X018136Y009268D01*
X018110Y009349D01*
X018089Y009431D01*
X018071Y009514D01*
X018057Y009598D01*
X018047Y009682D01*
X018041Y009767D01*
X018039Y009852D01*
X025432Y008752D02*
X025434Y008818D01*
X025440Y008884D01*
X025450Y008950D01*
X025463Y009015D01*
X025481Y009079D01*
X025502Y009141D01*
X025527Y009203D01*
X025555Y009263D01*
X025587Y009321D01*
X025623Y009377D01*
X025661Y009430D01*
X025703Y009482D01*
X025748Y009531D01*
X025795Y009577D01*
X025846Y009620D01*
X025898Y009660D01*
X025953Y009697D01*
X026010Y009731D01*
X026069Y009761D01*
X026130Y009788D01*
X026192Y009811D01*
X026255Y009830D01*
X026320Y009846D01*
X026385Y009858D01*
X026451Y009866D01*
X026517Y009870D01*
X026583Y009870D01*
X026649Y009866D01*
X026715Y009858D01*
X026780Y009846D01*
X026845Y009830D01*
X026908Y009811D01*
X026970Y009788D01*
X027031Y009761D01*
X027090Y009731D01*
X027147Y009697D01*
X027202Y009660D01*
X027254Y009620D01*
X027305Y009577D01*
X027352Y009531D01*
X027397Y009482D01*
X027439Y009430D01*
X027477Y009377D01*
X027513Y009321D01*
X027545Y009263D01*
X027573Y009203D01*
X027598Y009141D01*
X027619Y009079D01*
X027637Y009015D01*
X027650Y008950D01*
X027660Y008884D01*
X027666Y008818D01*
X027668Y008752D01*
X027666Y008686D01*
X027660Y008620D01*
X027650Y008554D01*
X027637Y008489D01*
X027619Y008425D01*
X027598Y008363D01*
X027573Y008301D01*
X027545Y008241D01*
X027513Y008183D01*
X027477Y008127D01*
X027439Y008074D01*
X027397Y008022D01*
X027352Y007973D01*
X027305Y007927D01*
X027254Y007884D01*
X027202Y007844D01*
X027147Y007807D01*
X027090Y007773D01*
X027031Y007743D01*
X026970Y007716D01*
X026908Y007693D01*
X026845Y007674D01*
X026780Y007658D01*
X026715Y007646D01*
X026649Y007638D01*
X026583Y007634D01*
X026517Y007634D01*
X026451Y007638D01*
X026385Y007646D01*
X026320Y007658D01*
X026255Y007674D01*
X026192Y007693D01*
X026130Y007716D01*
X026069Y007743D01*
X026010Y007773D01*
X025953Y007807D01*
X025898Y007844D01*
X025846Y007884D01*
X025795Y007927D01*
X025748Y007973D01*
X025703Y008022D01*
X025661Y008074D01*
X025623Y008127D01*
X025587Y008183D01*
X025555Y008241D01*
X025527Y008301D01*
X025502Y008363D01*
X025481Y008425D01*
X025463Y008489D01*
X025450Y008554D01*
X025440Y008620D01*
X025434Y008686D01*
X025432Y008752D01*
X014334Y013659D02*
X014334Y014446D01*
X014308Y014505D01*
X014279Y014562D01*
X014247Y014617D01*
X014211Y014671D01*
X014172Y014722D01*
X014129Y014770D01*
X014084Y014816D01*
X014037Y014859D01*
X013987Y014900D01*
X013934Y014937D01*
X013879Y014970D01*
X013823Y015001D01*
X013764Y015028D01*
X013704Y015051D01*
X013643Y015071D01*
X013581Y015087D01*
X013517Y015099D01*
X013454Y015107D01*
X013390Y015111D01*
X013325Y015112D01*
X013261Y015108D01*
X013197Y015101D01*
X013134Y015090D01*
X013071Y015075D01*
X013010Y015056D01*
X012949Y015033D01*
X012891Y015007D01*
X012834Y014978D01*
X012778Y014945D01*
X012725Y014908D01*
X012675Y014869D01*
X012626Y014826D01*
X012581Y014781D01*
X012538Y014733D01*
X012498Y014683D01*
X012461Y014630D01*
X012428Y014575D01*
X012398Y014518D01*
X012371Y014459D01*
X012348Y014399D01*
X012329Y014338D01*
X012314Y014275D01*
X012302Y014212D01*
X012294Y014148D01*
X012290Y014084D01*
X012290Y014020D01*
X012294Y013956D01*
X012302Y013892D01*
X012314Y013829D01*
X012329Y013766D01*
X012348Y013705D01*
X012371Y013645D01*
X012398Y013586D01*
X012428Y013529D01*
X012461Y013474D01*
X012498Y013421D01*
X012538Y013371D01*
X012581Y013323D01*
X012626Y013278D01*
X012675Y013235D01*
X012725Y013196D01*
X012778Y013159D01*
X012834Y013126D01*
X012891Y013097D01*
X012949Y013071D01*
X013010Y013048D01*
X013071Y013029D01*
X013134Y013014D01*
X013197Y013003D01*
X013261Y012996D01*
X013325Y012992D01*
X013390Y012993D01*
X013454Y012997D01*
X013517Y013005D01*
X013581Y013017D01*
X013643Y013033D01*
X013704Y013053D01*
X013764Y013076D01*
X013823Y013103D01*
X013879Y013134D01*
X013934Y013167D01*
X013987Y013204D01*
X014037Y013245D01*
X014084Y013288D01*
X014129Y013334D01*
X014172Y013382D01*
X014211Y013433D01*
X014247Y013487D01*
X014279Y013542D01*
X014308Y013599D01*
X014334Y013658D01*
X024175Y014202D02*
X024250Y014127D01*
X024400Y014127D01*
X024475Y014202D01*
X024475Y014277D01*
X024400Y014352D01*
X024325Y014352D01*
X024400Y014352D02*
X024475Y014427D01*
X024475Y014503D01*
X024400Y014578D01*
X024250Y014578D01*
X024175Y014503D01*
X027975Y014503D02*
X028050Y014578D01*
X028200Y014578D01*
X028275Y014503D01*
X028275Y014427D01*
X028200Y014352D01*
X028275Y014277D01*
X028275Y014202D01*
X028200Y014127D01*
X028050Y014127D01*
X027975Y014202D01*
X028125Y014352D02*
X028200Y014352D01*
D13*
X029050Y014202D02*
X029450Y014602D01*
X025650Y014602D02*
X025250Y014202D01*
X040850Y014352D02*
X040850Y015352D01*
X043350Y015352D01*
X043350Y014352D01*
X046350Y014352D01*
X046350Y015352D01*
X048850Y015352D01*
X048850Y014352D01*
X046350Y015352D02*
X046350Y015852D01*
X043350Y015852D01*
X043350Y015352D01*
X023050Y008752D02*
X023052Y008870D01*
X023058Y008988D01*
X023068Y009106D01*
X023082Y009223D01*
X023100Y009340D01*
X023122Y009457D01*
X023147Y009572D01*
X023177Y009686D01*
X023211Y009800D01*
X023248Y009912D01*
X023289Y010023D01*
X023334Y010132D01*
X023382Y010240D01*
X023434Y010346D01*
X023490Y010451D01*
X023549Y010553D01*
X023611Y010653D01*
X023677Y010751D01*
X023746Y010847D01*
X023819Y010941D01*
X023894Y011032D01*
X023973Y011120D01*
X024054Y011206D01*
X024139Y011289D01*
X024226Y011369D01*
X024315Y011446D01*
X024408Y011520D01*
X024502Y011590D01*
X024599Y011658D01*
X024699Y011722D01*
X024800Y011783D01*
X024903Y011840D01*
X025009Y011894D01*
X025116Y011945D01*
X025224Y011991D01*
X025334Y012034D01*
X025446Y012073D01*
X025559Y012109D01*
X025673Y012140D01*
X025788Y012168D01*
X025903Y012192D01*
X026020Y012212D01*
X026137Y012228D01*
X026255Y012240D01*
X026373Y012248D01*
X026491Y012252D01*
X026609Y012252D01*
X026727Y012248D01*
X026845Y012240D01*
X026963Y012228D01*
X027080Y012212D01*
X027197Y012192D01*
X027312Y012168D01*
X027427Y012140D01*
X027541Y012109D01*
X027654Y012073D01*
X027766Y012034D01*
X027876Y011991D01*
X027984Y011945D01*
X028091Y011894D01*
X028197Y011840D01*
X028300Y011783D01*
X028401Y011722D01*
X028501Y011658D01*
X028598Y011590D01*
X028692Y011520D01*
X028785Y011446D01*
X028874Y011369D01*
X028961Y011289D01*
X029046Y011206D01*
X029127Y011120D01*
X029206Y011032D01*
X029281Y010941D01*
X029354Y010847D01*
X029423Y010751D01*
X029489Y010653D01*
X029551Y010553D01*
X029610Y010451D01*
X029666Y010346D01*
X029718Y010240D01*
X029766Y010132D01*
X029811Y010023D01*
X029852Y009912D01*
X029889Y009800D01*
X029923Y009686D01*
X029953Y009572D01*
X029978Y009457D01*
X030000Y009340D01*
X030018Y009223D01*
X030032Y009106D01*
X030042Y008988D01*
X030048Y008870D01*
X030050Y008752D01*
X030048Y008634D01*
X030042Y008516D01*
X030032Y008398D01*
X030018Y008281D01*
X030000Y008164D01*
X029978Y008047D01*
X029953Y007932D01*
X029923Y007818D01*
X029889Y007704D01*
X029852Y007592D01*
X029811Y007481D01*
X029766Y007372D01*
X029718Y007264D01*
X029666Y007158D01*
X029610Y007053D01*
X029551Y006951D01*
X029489Y006851D01*
X029423Y006753D01*
X029354Y006657D01*
X029281Y006563D01*
X029206Y006472D01*
X029127Y006384D01*
X029046Y006298D01*
X028961Y006215D01*
X028874Y006135D01*
X028785Y006058D01*
X028692Y005984D01*
X028598Y005914D01*
X028501Y005846D01*
X028401Y005782D01*
X028300Y005721D01*
X028197Y005664D01*
X028091Y005610D01*
X027984Y005559D01*
X027876Y005513D01*
X027766Y005470D01*
X027654Y005431D01*
X027541Y005395D01*
X027427Y005364D01*
X027312Y005336D01*
X027197Y005312D01*
X027080Y005292D01*
X026963Y005276D01*
X026845Y005264D01*
X026727Y005256D01*
X026609Y005252D01*
X026491Y005252D01*
X026373Y005256D01*
X026255Y005264D01*
X026137Y005276D01*
X026020Y005292D01*
X025903Y005312D01*
X025788Y005336D01*
X025673Y005364D01*
X025559Y005395D01*
X025446Y005431D01*
X025334Y005470D01*
X025224Y005513D01*
X025116Y005559D01*
X025009Y005610D01*
X024903Y005664D01*
X024800Y005721D01*
X024699Y005782D01*
X024599Y005846D01*
X024502Y005914D01*
X024408Y005984D01*
X024315Y006058D01*
X024226Y006135D01*
X024139Y006215D01*
X024054Y006298D01*
X023973Y006384D01*
X023894Y006472D01*
X023819Y006563D01*
X023746Y006657D01*
X023677Y006753D01*
X023611Y006851D01*
X023549Y006951D01*
X023490Y007053D01*
X023434Y007158D01*
X023382Y007264D01*
X023334Y007372D01*
X023289Y007481D01*
X023248Y007592D01*
X023211Y007704D01*
X023177Y007818D01*
X023147Y007932D01*
X023122Y008047D01*
X023100Y008164D01*
X023082Y008281D01*
X023068Y008398D01*
X023058Y008516D01*
X023052Y008634D01*
X023050Y008752D01*
X040850Y002352D02*
X041850Y001352D01*
X047850Y001352D01*
X048850Y002352D01*
D14*
X048850Y014352D01*
X047850Y014352D01*
X047850Y002352D01*
X048850Y002352D01*
X041850Y002352D02*
X040850Y002352D01*
X040850Y014352D01*
X041850Y014352D01*
X041850Y002352D01*
X030989Y008201D02*
X030674Y008201D01*
X030674Y008437D01*
X030674Y009067D02*
X030674Y009303D01*
X030989Y009303D01*
X034044Y012281D02*
X034044Y012459D01*
X034044Y012281D02*
X035856Y012281D01*
X035856Y012459D01*
X034556Y012459D02*
X034556Y013246D01*
X034044Y013246D02*
X034044Y013423D01*
X035856Y013423D01*
X035856Y013246D01*
X035816Y014070D02*
X035816Y014621D01*
X034084Y014621D01*
X034084Y014070D01*
X033611Y014070D01*
X033611Y014699D01*
X033050Y015002D02*
X032800Y014752D01*
X032300Y014752D01*
X032050Y015002D01*
X031800Y014752D01*
X031300Y014752D01*
X031050Y015002D01*
X030800Y014752D01*
X030300Y014752D01*
X030050Y015002D01*
X030050Y015502D01*
X030300Y015752D01*
X030800Y015752D01*
X031050Y015502D01*
X031300Y015752D01*
X031800Y015752D01*
X032050Y015502D01*
X032300Y015752D01*
X032800Y015752D01*
X033050Y015502D01*
X033050Y015002D01*
X033611Y015762D02*
X036289Y015762D01*
X036289Y014699D02*
X036289Y014070D01*
X035816Y014070D01*
X040344Y014681D02*
X040344Y014859D01*
X040344Y014681D02*
X042156Y014681D01*
X042156Y014859D01*
X041644Y014859D02*
X041644Y015646D01*
X042156Y015646D02*
X042156Y015823D01*
X040344Y015823D01*
X040344Y015646D01*
X044883Y015733D02*
X044883Y015552D01*
X045005Y015644D01*
X044883Y015552D02*
X044883Y015371D01*
X045005Y015466D02*
X044889Y015542D01*
X020401Y007428D02*
X020401Y007113D01*
X020401Y007428D02*
X020165Y007428D01*
X019535Y007428D02*
X019299Y007428D01*
X019299Y007113D01*
X012627Y007852D02*
X012629Y007948D01*
X012635Y008044D01*
X012645Y008139D01*
X012659Y008234D01*
X012676Y008329D01*
X012698Y008422D01*
X012724Y008515D01*
X012753Y008606D01*
X012786Y008696D01*
X012823Y008785D01*
X012863Y008872D01*
X012907Y008958D01*
X012954Y009041D01*
X013005Y009123D01*
X013059Y009202D01*
X013117Y009279D01*
X013177Y009353D01*
X013241Y009425D01*
X013307Y009495D01*
X013377Y009561D01*
X013449Y009625D01*
X013523Y009685D01*
X013600Y009743D01*
X013679Y009797D01*
X013761Y009848D01*
X013844Y009895D01*
X013930Y009939D01*
X014017Y009979D01*
X014106Y010016D01*
X014196Y010049D01*
X014287Y010078D01*
X014380Y010104D01*
X014473Y010126D01*
X014568Y010143D01*
X014663Y010157D01*
X014758Y010167D01*
X014854Y010173D01*
X014950Y010175D01*
X015046Y010173D01*
X015142Y010167D01*
X015237Y010157D01*
X015332Y010143D01*
X015427Y010126D01*
X015520Y010104D01*
X015613Y010078D01*
X015704Y010049D01*
X015794Y010016D01*
X015883Y009979D01*
X015970Y009939D01*
X016056Y009895D01*
X016139Y009848D01*
X016221Y009797D01*
X016300Y009743D01*
X016377Y009685D01*
X016451Y009625D01*
X016523Y009561D01*
X016593Y009495D01*
X016659Y009425D01*
X016723Y009353D01*
X016783Y009279D01*
X016841Y009202D01*
X016895Y009123D01*
X016946Y009041D01*
X016993Y008958D01*
X017037Y008872D01*
X017077Y008785D01*
X017114Y008696D01*
X017147Y008606D01*
X017176Y008515D01*
X017202Y008422D01*
X017224Y008329D01*
X017241Y008234D01*
X017255Y008139D01*
X017265Y008044D01*
X017271Y007948D01*
X017273Y007852D01*
X017271Y007756D01*
X017265Y007660D01*
X017255Y007565D01*
X017241Y007470D01*
X017224Y007375D01*
X017202Y007282D01*
X017176Y007189D01*
X017147Y007098D01*
X017114Y007008D01*
X017077Y006919D01*
X017037Y006832D01*
X016993Y006746D01*
X016946Y006663D01*
X016895Y006581D01*
X016841Y006502D01*
X016783Y006425D01*
X016723Y006351D01*
X016659Y006279D01*
X016593Y006209D01*
X016523Y006143D01*
X016451Y006079D01*
X016377Y006019D01*
X016300Y005961D01*
X016221Y005907D01*
X016139Y005856D01*
X016056Y005809D01*
X015970Y005765D01*
X015883Y005725D01*
X015794Y005688D01*
X015704Y005655D01*
X015613Y005626D01*
X015520Y005600D01*
X015427Y005578D01*
X015332Y005561D01*
X015237Y005547D01*
X015142Y005537D01*
X015046Y005531D01*
X014950Y005529D01*
X014854Y005531D01*
X014758Y005537D01*
X014663Y005547D01*
X014568Y005561D01*
X014473Y005578D01*
X014380Y005600D01*
X014287Y005626D01*
X014196Y005655D01*
X014106Y005688D01*
X014017Y005725D01*
X013930Y005765D01*
X013844Y005809D01*
X013761Y005856D01*
X013679Y005907D01*
X013600Y005961D01*
X013523Y006019D01*
X013449Y006079D01*
X013377Y006143D01*
X013307Y006209D01*
X013241Y006279D01*
X013177Y006351D01*
X013117Y006425D01*
X013059Y006502D01*
X013005Y006581D01*
X012954Y006663D01*
X012907Y006746D01*
X012863Y006832D01*
X012823Y006919D01*
X012786Y007008D01*
X012753Y007098D01*
X012724Y007189D01*
X012698Y007282D01*
X012676Y007375D01*
X012659Y007470D01*
X012645Y007565D01*
X012635Y007660D01*
X012629Y007756D01*
X012627Y007852D01*
X014399Y011077D02*
X014399Y011392D01*
X014399Y011077D02*
X014635Y011077D01*
X015265Y011077D02*
X015501Y011077D01*
X015501Y011392D01*
D15*
X002150Y004252D02*
X000150Y005252D01*
X000150Y009252D01*
X002150Y010252D01*
X002150Y004252D01*
X010150Y004252D01*
X010150Y007252D01*
X010150Y010252D01*
X002150Y010252D01*
X012981Y003152D02*
X013375Y003152D01*
X012981Y003152D02*
X012981Y002759D01*
X016919Y002759D01*
X016919Y003152D01*
X016525Y003152D01*
X017281Y003152D02*
X017675Y003152D01*
X017281Y003152D02*
X017281Y002759D01*
X021219Y002759D01*
X021219Y003152D01*
X020825Y003152D01*
X021581Y003152D02*
X021975Y003152D01*
X021581Y003152D02*
X021581Y002759D01*
X025519Y002759D01*
X025519Y003152D01*
X025125Y003152D01*
X025881Y003152D02*
X026275Y003152D01*
X025881Y003152D02*
X025881Y002759D01*
X029819Y002759D01*
X029819Y003152D01*
X029425Y003152D01*
X030181Y003152D02*
X030575Y003152D01*
X030181Y003152D02*
X030181Y002759D01*
X034119Y002759D01*
X034119Y003152D01*
X033725Y003152D01*
X034481Y003152D02*
X034875Y003152D01*
X034481Y003152D02*
X034481Y002759D01*
X038419Y002759D01*
X038419Y003152D01*
X038025Y003152D01*
X038419Y002759D02*
X038419Y001774D01*
X038143Y001774D01*
X038143Y002365D01*
X038400Y002365D01*
X038419Y001774D02*
X038419Y001184D01*
X037237Y001184D01*
X037237Y002559D01*
X035663Y002559D01*
X035663Y001184D01*
X034481Y001184D01*
X034481Y002365D01*
X034757Y002365D01*
X034757Y001774D01*
X034500Y001774D01*
X034119Y001774D02*
X033843Y001774D01*
X033843Y002365D01*
X034100Y002365D01*
X034481Y002365D02*
X034481Y002759D01*
X034119Y002759D02*
X034119Y001774D01*
X034119Y001184D01*
X032937Y001184D01*
X032937Y002559D01*
X031363Y002559D01*
X031363Y001184D01*
X030181Y001184D01*
X030181Y002365D01*
X030457Y002365D01*
X030457Y001774D01*
X030200Y001774D01*
X029819Y001774D02*
X029543Y001774D01*
X029543Y002365D01*
X029800Y002365D01*
X030181Y002365D02*
X030181Y002759D01*
X029819Y002759D02*
X029819Y001774D01*
X029819Y001184D01*
X028637Y001184D01*
X028637Y002559D01*
X027063Y002559D01*
X027063Y001184D01*
X025881Y001184D01*
X025881Y002365D01*
X026157Y002365D01*
X026157Y001774D01*
X025900Y001774D01*
X025519Y001774D02*
X025243Y001774D01*
X025243Y002365D01*
X025500Y002365D01*
X025881Y002365D02*
X025881Y002759D01*
X025519Y002759D02*
X025519Y001774D01*
X025519Y001184D01*
X024337Y001184D01*
X024337Y002559D01*
X022763Y002559D01*
X022763Y001184D01*
X021581Y001184D01*
X021581Y002365D01*
X021857Y002365D01*
X021857Y001774D01*
X021600Y001774D01*
X021219Y001774D02*
X020943Y001774D01*
X020943Y002365D01*
X021200Y002365D01*
X021581Y002365D02*
X021581Y002759D01*
X021219Y002759D02*
X021219Y001774D01*
X021219Y001184D01*
X020037Y001184D01*
X020037Y002559D01*
X018463Y002559D01*
X018463Y001184D01*
X017281Y001184D01*
X017281Y002365D01*
X017557Y002365D01*
X017557Y001774D01*
X017300Y001774D01*
X016919Y001774D02*
X016643Y001774D01*
X016643Y002365D01*
X016900Y002365D01*
X017281Y002365D02*
X017281Y002759D01*
X016919Y002759D02*
X016919Y001774D01*
X016919Y001184D01*
X015737Y001184D01*
X015737Y002559D01*
X014163Y002559D01*
X014163Y001184D01*
X012981Y001184D01*
X012981Y002365D01*
X013257Y002365D01*
X013257Y001774D01*
X013000Y001774D01*
X012981Y002365D02*
X012981Y002759D01*
X014163Y001184D02*
X015737Y001184D01*
X018463Y001184D02*
X020037Y001184D01*
X022763Y001184D02*
X024337Y001184D01*
X027063Y001184D02*
X028637Y001184D01*
X031363Y001184D02*
X032937Y001184D01*
X035663Y001184D02*
X037237Y001184D01*
D16*
X036850Y001381D02*
X036850Y002480D01*
X036050Y002480D02*
X036050Y001381D01*
X032550Y001381D02*
X032550Y002480D01*
X031750Y002480D02*
X031750Y001381D01*
X028250Y001381D02*
X028250Y002480D01*
X027450Y002480D02*
X027450Y001381D01*
X023950Y001381D02*
X023950Y002480D01*
X023150Y002480D02*
X023150Y001381D01*
X019650Y001381D02*
X019650Y002480D01*
X018850Y002480D02*
X018850Y001381D01*
X015350Y001381D02*
X015350Y002480D01*
X014550Y002480D02*
X014550Y001381D01*
D17*
X032150Y008752D03*
X044950Y005252D03*
X045550Y005252D03*
X046150Y005252D03*
X015950Y011352D03*
X013850Y012252D03*
X013250Y012252D03*
X012650Y012252D03*
D18*
X023550Y013552D03*
X027250Y013552D03*
X044950Y014952D03*
X019850Y006052D03*
D19*
X036970Y010073D02*
X036970Y011962D01*
X037640Y012632D01*
X037876Y012632D01*
X038624Y012632D02*
X038860Y012632D01*
X039530Y011962D01*
X039530Y010073D01*
X038624Y010073D01*
X037876Y010073D02*
X036970Y010073D01*
X038624Y010191D02*
X038688Y010213D01*
X038751Y010240D01*
X038813Y010270D01*
X038872Y010303D01*
X038930Y010339D01*
X038986Y010379D01*
X039039Y010422D01*
X039090Y010467D01*
X039138Y010515D01*
X039183Y010566D01*
X039226Y010620D01*
X039265Y010676D01*
X039302Y010733D01*
X039335Y010793D01*
X039364Y010855D01*
X039390Y010918D01*
X039413Y010982D01*
X039432Y011048D01*
X039447Y011115D01*
X039458Y011182D01*
X039466Y011250D01*
X039470Y011318D01*
X039470Y011386D01*
X039466Y011454D01*
X039458Y011522D01*
X039447Y011589D01*
X039432Y011656D01*
X039413Y011722D01*
X039390Y011786D01*
X039364Y011849D01*
X039335Y011911D01*
X039302Y011971D01*
X039265Y012028D01*
X039226Y012084D01*
X039183Y012138D01*
X039138Y012189D01*
X039090Y012237D01*
X039039Y012282D01*
X038986Y012325D01*
X038930Y012365D01*
X038872Y012401D01*
X038813Y012434D01*
X038751Y012464D01*
X038688Y012491D01*
X038624Y012513D01*
X037876Y012513D02*
X037812Y012491D01*
X037749Y012464D01*
X037687Y012434D01*
X037628Y012401D01*
X037570Y012365D01*
X037514Y012325D01*
X037461Y012282D01*
X037410Y012237D01*
X037362Y012189D01*
X037317Y012138D01*
X037274Y012084D01*
X037235Y012028D01*
X037198Y011971D01*
X037165Y011911D01*
X037136Y011849D01*
X037110Y011786D01*
X037087Y011722D01*
X037068Y011656D01*
X037053Y011589D01*
X037042Y011522D01*
X037034Y011454D01*
X037030Y011386D01*
X037030Y011318D01*
X037034Y011250D01*
X037042Y011182D01*
X037053Y011115D01*
X037068Y011048D01*
X037087Y010982D01*
X037110Y010918D01*
X037136Y010855D01*
X037165Y010793D01*
X037198Y010733D01*
X037235Y010676D01*
X037274Y010620D01*
X037317Y010566D01*
X037362Y010515D01*
X037410Y010467D01*
X037461Y010422D01*
X037514Y010379D01*
X037570Y010339D01*
X037628Y010303D01*
X037687Y010270D01*
X037749Y010240D01*
X037812Y010213D01*
X037876Y010191D01*
D20*
X029000Y014402D02*
X029002Y014433D01*
X029008Y014464D01*
X029018Y014494D01*
X029031Y014522D01*
X029048Y014549D01*
X029068Y014573D01*
X029091Y014595D01*
X029116Y014613D01*
X029144Y014628D01*
X029173Y014640D01*
X029203Y014648D01*
X029234Y014652D01*
X029266Y014652D01*
X029297Y014648D01*
X029327Y014640D01*
X029356Y014628D01*
X029384Y014613D01*
X029409Y014595D01*
X029432Y014573D01*
X029452Y014549D01*
X029469Y014522D01*
X029482Y014494D01*
X029492Y014464D01*
X029498Y014433D01*
X029500Y014402D01*
X029498Y014371D01*
X029492Y014340D01*
X029482Y014310D01*
X029469Y014282D01*
X029452Y014255D01*
X029432Y014231D01*
X029409Y014209D01*
X029384Y014191D01*
X029356Y014176D01*
X029327Y014164D01*
X029297Y014156D01*
X029266Y014152D01*
X029234Y014152D01*
X029203Y014156D01*
X029173Y014164D01*
X029144Y014176D01*
X029116Y014191D01*
X029091Y014209D01*
X029068Y014231D01*
X029048Y014255D01*
X029031Y014282D01*
X029018Y014310D01*
X029008Y014340D01*
X029002Y014371D01*
X029000Y014402D01*
X025200Y014402D02*
X025202Y014433D01*
X025208Y014464D01*
X025218Y014494D01*
X025231Y014522D01*
X025248Y014549D01*
X025268Y014573D01*
X025291Y014595D01*
X025316Y014613D01*
X025344Y014628D01*
X025373Y014640D01*
X025403Y014648D01*
X025434Y014652D01*
X025466Y014652D01*
X025497Y014648D01*
X025527Y014640D01*
X025556Y014628D01*
X025584Y014613D01*
X025609Y014595D01*
X025632Y014573D01*
X025652Y014549D01*
X025669Y014522D01*
X025682Y014494D01*
X025692Y014464D01*
X025698Y014433D01*
X025700Y014402D01*
X025698Y014371D01*
X025692Y014340D01*
X025682Y014310D01*
X025669Y014282D01*
X025652Y014255D01*
X025632Y014231D01*
X025609Y014209D01*
X025584Y014191D01*
X025556Y014176D01*
X025527Y014164D01*
X025497Y014156D01*
X025466Y014152D01*
X025434Y014152D01*
X025403Y014156D01*
X025373Y014164D01*
X025344Y014176D01*
X025316Y014191D01*
X025291Y014209D01*
X025268Y014231D01*
X025248Y014255D01*
X025231Y014282D01*
X025218Y014310D01*
X025208Y014340D01*
X025202Y014371D01*
X025200Y014402D01*
M02*
