%
M48
M72
T01C0.0276
T02C0.0300
T03C0.0315
T04C0.0320
T05C0.0354
T06C0.0394
T07C0.0400
T08C0.0440
T09C0.1181
T10C0.1250
%
T01
X2961Y4900
X3861Y4900
X4761Y4900
X4761Y5800
X3861Y5800
X2961Y5800
X2961Y9200
X3861Y9200
X4761Y9200
X4761Y10100
X3861Y10100
X2961Y10100
X2561Y12250
X2561Y13050
X5611Y13100
X7361Y13050
X23761Y12800
X49911Y8500
T02
X41161Y4050
X41161Y3550
X41161Y3050
X41161Y2550
T03
X42761Y6500
X42761Y7500
X42761Y8500
X42761Y9500
X31661Y13216
X30677Y14200
X32645Y14200
X31661Y15184
X39057Y14300
X41065Y14300
X40061Y13296
X40061Y15304
X11542Y14900
X10755Y14900
X9967Y14900
X9180Y14900
X9180Y12000
X9967Y12000
X10755Y12000
X11542Y12000
T04
X27611Y13300
X27611Y14300
X27611Y15300
X36211Y15300
X36211Y14300
X36211Y13300
X35861Y2950
X36861Y2950
X34861Y2950
X28161Y2950
X27161Y2950
X26161Y2950
T05
X47382Y14000
X49941Y14000
T06
X37742Y9927
X35894Y10692
X33934Y9881
X29042Y9927
X27194Y10692
X25234Y9881
X24469Y8033
X29854Y7967
X33169Y8033
X38554Y7967
X37788Y6119
X33981Y6073
X29088Y6119
X25281Y6073
X11845Y4752
X9877Y5933
X9877Y3453
T07
X13261Y3300
X14261Y3300
X15261Y3300
X15261Y4300
X14261Y4300
X13261Y4300
X13261Y5300
X14261Y5300
X15261Y5300
X15261Y6300
X14261Y6300
X13261Y6300
X13261Y7300
X14261Y7300
X15261Y7300
X15261Y8300
X14261Y8300
X13261Y8300
X13261Y9300
X14261Y9300
X15261Y9300
X15261Y10300
X14261Y10300
X13261Y10300
X13261Y11300
X14261Y11300
X15261Y11300
X15261Y12300
X14261Y12300
X13261Y12300
X13261Y13300
X14261Y13300
X15261Y13300
X15261Y14300
X14261Y14300
X13261Y14300
X20261Y14300
X21261Y14300
X22261Y14300
X22261Y13300
X21261Y13300
X20261Y13300
X20261Y12300
X21261Y12300
X22261Y12300
X22261Y11300
X21261Y11300
X20261Y11300
X20261Y10300
X21261Y10300
X22261Y10300
X22261Y9300
X21261Y9300
X20261Y9300
X20261Y8300
X21261Y8300
X22261Y8300
X22261Y7300
X21261Y7300
X20261Y7300
X20261Y6300
X21261Y6300
X22261Y6300
X22261Y5300
X21261Y5300
X20261Y5300
X20261Y4300
X21261Y4300
X22261Y4300
X22261Y3300
X21261Y3300
X20261Y3300
X30061Y3000
X31061Y3000
X32061Y3000
T08
X6561Y2700
X5561Y2700
T09
X52511Y8000
T10
X3161Y2800
X3161Y15200
X52661Y15200
X52661Y2700
M30
