G75*
%MOIN*%
%OFA0B0*%
%FSLAX24Y24*%
%IPPOS*%
%LPD*%
%AMOC8*
5,1,8,0,0,1.08239X$1,22.5*
%
%ADD10C,0.1330*%
%ADD11C,0.0820*%
%ADD12C,0.0552*%
%ADD13C,0.1080*%
%ADD14R,0.0580X0.0580*%
%ADD15C,0.0580*%
%ADD16C,0.0530*%
%ADD17C,0.0780*%
%ADD18C,0.0820*%
%ADD19C,0.0867*%
%ADD20C,0.0560*%
%ADD21C,0.0552*%
%ADD22C,0.1261*%
D10*
X003161Y002800D03*
X003161Y015200D03*
X052661Y015200D03*
X052661Y002700D03*
D11*
X032061Y003000D03*
X031061Y003000D03*
X030061Y003000D03*
X022261Y003300D03*
X021261Y003300D03*
X020261Y003300D03*
X020261Y004300D03*
X021261Y004300D03*
X022261Y004300D03*
X022261Y005300D03*
X021261Y005300D03*
X020261Y005300D03*
X020261Y006300D03*
X021261Y006300D03*
X022261Y006300D03*
X022261Y007300D03*
X021261Y007300D03*
X020261Y007300D03*
X020261Y008300D03*
X021261Y008300D03*
X022261Y008300D03*
X022261Y009300D03*
X021261Y009300D03*
X020261Y009300D03*
X020261Y010300D03*
X021261Y010300D03*
X022261Y010300D03*
X022261Y011300D03*
X021261Y011300D03*
X020261Y011300D03*
X020261Y012300D03*
X021261Y012300D03*
X022261Y012300D03*
X022261Y013300D03*
X021261Y013300D03*
X020261Y013300D03*
X020261Y014300D03*
X021261Y014300D03*
X022261Y014300D03*
X015261Y014300D03*
X014261Y014300D03*
X013261Y014300D03*
X013261Y013300D03*
X014261Y013300D03*
X015261Y013300D03*
X015261Y012300D03*
X014261Y012300D03*
X013261Y012300D03*
X013261Y011300D03*
X014261Y011300D03*
X015261Y011300D03*
X015261Y010300D03*
X014261Y010300D03*
X013261Y010300D03*
X013261Y009300D03*
X014261Y009300D03*
X015261Y009300D03*
X015261Y008300D03*
X014261Y008300D03*
X013261Y008300D03*
X013261Y007300D03*
X014261Y007300D03*
X015261Y007300D03*
X015261Y006300D03*
X014261Y006300D03*
X013261Y006300D03*
X013261Y005300D03*
X014261Y005300D03*
X015261Y005300D03*
X015261Y004300D03*
X014261Y004300D03*
X013261Y004300D03*
X013261Y003300D03*
X014261Y003300D03*
X015261Y003300D03*
D12*
X031661Y013216D03*
X030677Y014200D03*
X032645Y014200D03*
X031661Y015184D03*
X039057Y014300D03*
X041065Y014300D03*
X040061Y013296D03*
X040061Y015304D03*
D13*
X035894Y010692D03*
X037742Y009927D03*
X033934Y009881D03*
X029042Y009927D03*
X027194Y010692D03*
X025234Y009881D03*
X024469Y008033D03*
X029854Y007967D03*
X033169Y008033D03*
X038554Y007967D03*
X037788Y006119D03*
X033981Y006073D03*
X029088Y006119D03*
X025281Y006073D03*
D14*
X011542Y012000D03*
X011542Y014900D03*
D15*
X010755Y014900D03*
X009967Y014900D03*
X009180Y014900D03*
X007361Y013050D03*
X005611Y013100D03*
X002561Y013050D03*
X002561Y012250D03*
X002961Y010100D03*
X003861Y010100D03*
X004761Y010100D03*
X004761Y009200D03*
X003861Y009200D03*
X002961Y009200D03*
X009180Y012000D03*
X009967Y012000D03*
X010755Y012000D03*
X023761Y012800D03*
X004761Y005800D03*
X003861Y005800D03*
X002961Y005800D03*
X002961Y004900D03*
X003861Y004900D03*
X004761Y004900D03*
X049911Y008500D03*
D16*
X041386Y004050D02*
X040936Y004050D01*
X040936Y003550D02*
X041386Y003550D01*
X041386Y003050D02*
X040936Y003050D01*
X040936Y002550D02*
X041386Y002550D01*
D17*
X047382Y014000D03*
X049941Y014000D03*
D18*
X005561Y003070D02*
X005561Y002330D01*
X006561Y002330D02*
X006561Y003070D01*
D19*
X009483Y003453D02*
X010271Y003453D01*
X011845Y004358D02*
X011845Y005146D01*
X010271Y005933D02*
X009483Y005933D01*
D20*
X026161Y003190D02*
X026161Y002710D01*
X027161Y002710D02*
X027161Y003190D01*
X028161Y003190D02*
X028161Y002710D01*
X034861Y002710D02*
X034861Y003190D01*
X035861Y003190D02*
X035861Y002710D01*
X036861Y002710D02*
X036861Y003190D01*
X036451Y013300D02*
X035971Y013300D01*
X035971Y014300D02*
X036451Y014300D01*
X036451Y015300D02*
X035971Y015300D01*
X027851Y015300D02*
X027371Y015300D01*
X027371Y014300D02*
X027851Y014300D01*
X027851Y013300D02*
X027371Y013300D01*
D21*
X042525Y009500D02*
X042997Y009500D01*
X042997Y008500D02*
X042525Y008500D01*
X042525Y007500D02*
X042997Y007500D01*
X042997Y006500D02*
X042525Y006500D01*
D22*
X052511Y008000D03*
M02*
