%
M48
M72
T01C0.0160
T02C0.0197
T03C0.0236
T04C0.0300
T05C0.0315
T06C0.0320
T07C0.0354
T08C0.0394
T09C0.0400
T10C0.0472
T11C0.0590
T12C0.1181
T13C0.1250
%
T01
X11150Y3752
X10650Y4252
X11650Y4252
X12650Y2652
X12650Y1902
X19650Y1592
X23950Y1592
X28250Y1592
X36200Y3902
X34850Y4552
X36350Y5452
X39100Y5352
X39600Y5852
X38470Y7492
X39080Y8202
X39600Y8652
X36750Y8152
X36450Y8552
X34850Y7102
X34430Y7102
X32370Y10312
X31890Y10292
X36040Y11342
X37040Y11342
X37490Y11192
X37840Y11342
X38240Y11342
X38640Y11342
X38990Y11192
X39450Y11252
X39450Y10452
X29950Y12752
X29400Y12752
X33300Y15152
X43150Y15452
X44150Y15452
X22400Y7052
X21900Y6552
X17950Y10552
X17050Y10552
X17500Y11002
X13850Y11352
X13250Y11352
X12650Y11352
X10900Y11452
X10900Y13502
X38550Y3252
X44350Y5602
X46150Y6852
T02
X36043Y15152
X33857Y15152
T03
X34182Y14325
X35718Y14325
T04
X14100Y14052
X13600Y14052
X13100Y14052
X12600Y14052
T05
X19850Y10856
X18846Y9852
X20854Y9852
X19850Y8848
X11150Y8752
X11150Y7752
X11150Y6752
X11150Y5752
X13769Y3152
X14556Y3152
X15344Y3152
X16131Y3152
X18069Y3152
X18856Y3152
X19644Y3152
X20431Y3152
X22369Y3152
X23156Y3152
X23944Y3152
X24731Y3152
X26669Y3152
X27456Y3152
X28244Y3152
X29031Y3152
X30969Y3152
X31756Y3152
X32544Y3152
X33331Y3152
X35269Y3152
X36056Y3152
X36844Y3152
X37631Y3152
T06
X28950Y15102
X27950Y15102
X26950Y15102
X25150Y15102
X24150Y15102
X23150Y15102
T07
X14950Y9132
X14950Y6573
T08
X23858Y8785
X24669Y6825
X28477Y6872
X29242Y8719
X28431Y10679
X26583Y11445
X24623Y10633
T09
X21140Y15042
X19360Y15042
X17340Y15042
X15560Y15042
X30550Y15252
X31550Y15252
X32550Y15252
X40350Y13852
X41350Y13852
X42350Y13852
X42350Y12852
X41350Y12852
X40350Y12852
X40350Y11852
X41350Y11852
X42350Y11852
X42350Y10852
X41350Y10852
X40350Y10852
X40350Y9852
X41350Y9852
X42350Y9852
X42350Y8852
X41350Y8852
X40350Y8852
X40350Y7852
X41350Y7852
X42350Y7852
X42350Y6852
X41350Y6852
X40350Y6852
X40350Y5852
X41350Y5852
X42350Y5852
X42350Y4852
X41350Y4852
X40350Y4852
X40350Y3852
X41350Y3852
X42350Y3852
X42350Y2852
X41350Y2852
X40350Y2852
X47350Y2852
X48350Y2852
X49350Y2852
X49350Y3852
X48350Y3852
X47350Y3852
X47350Y4852
X48350Y4852
X49350Y4852
X49350Y5852
X48350Y5852
X47350Y5852
X47350Y6852
X48350Y6852
X49350Y6852
X49350Y7852
X48350Y7852
X47350Y7852
X47350Y8852
X48350Y8852
X49350Y8852
X49350Y9852
X48350Y9852
X47350Y9852
X47350Y10852
X48350Y10852
X49350Y10852
X49350Y11852
X48350Y11852
X47350Y11852
X47350Y12852
X48350Y12852
X49350Y12852
X49350Y13852
X48350Y13852
X47350Y13852
T10
X38850Y14552
X37472Y14552
T11
X21630Y14062
X18870Y14062
X17830Y14062
X15070Y14062
T12
X1400Y7252
T13
X11250Y2352
X11250Y14852
X50750Y14852
X50750Y2352
M30
