G75*
%MOIN*%
%OFA0B0*%
%FSLAX24Y24*%
%IPPOS*%
%LPD*%
%AMOC8*
5,1,8,0,0,1.08239X$1,22.5*
%
%ADD10C,0.0000*%
D10*
X001661Y001300D02*
X054161Y001300D01*
X054161Y016700D01*
X001661Y016700D01*
X001661Y001300D01*
X002536Y002800D02*
X002538Y002850D01*
X002544Y002899D01*
X002554Y002948D01*
X002567Y002995D01*
X002585Y003042D01*
X002606Y003087D01*
X002630Y003130D01*
X002658Y003171D01*
X002689Y003210D01*
X002723Y003246D01*
X002760Y003280D01*
X002800Y003310D01*
X002841Y003337D01*
X002885Y003361D01*
X002930Y003381D01*
X002977Y003397D01*
X003025Y003410D01*
X003074Y003419D01*
X003124Y003424D01*
X003173Y003425D01*
X003223Y003422D01*
X003272Y003415D01*
X003321Y003404D01*
X003368Y003390D01*
X003414Y003371D01*
X003459Y003349D01*
X003502Y003324D01*
X003542Y003295D01*
X003580Y003263D01*
X003616Y003229D01*
X003649Y003191D01*
X003678Y003151D01*
X003704Y003109D01*
X003727Y003065D01*
X003746Y003019D01*
X003762Y002972D01*
X003774Y002923D01*
X003782Y002874D01*
X003786Y002825D01*
X003786Y002775D01*
X003782Y002726D01*
X003774Y002677D01*
X003762Y002628D01*
X003746Y002581D01*
X003727Y002535D01*
X003704Y002491D01*
X003678Y002449D01*
X003649Y002409D01*
X003616Y002371D01*
X003580Y002337D01*
X003542Y002305D01*
X003502Y002276D01*
X003459Y002251D01*
X003414Y002229D01*
X003368Y002210D01*
X003321Y002196D01*
X003272Y002185D01*
X003223Y002178D01*
X003173Y002175D01*
X003124Y002176D01*
X003074Y002181D01*
X003025Y002190D01*
X002977Y002203D01*
X002930Y002219D01*
X002885Y002239D01*
X002841Y002263D01*
X002800Y002290D01*
X002760Y002320D01*
X002723Y002354D01*
X002689Y002390D01*
X002658Y002429D01*
X002630Y002470D01*
X002606Y002513D01*
X002585Y002558D01*
X002567Y002605D01*
X002554Y002652D01*
X002544Y002701D01*
X002538Y002750D01*
X002536Y002800D01*
X009444Y003256D02*
X010310Y003256D01*
X010336Y003258D01*
X010361Y003263D01*
X010385Y003271D01*
X010409Y003282D01*
X010430Y003297D01*
X010449Y003314D01*
X010466Y003333D01*
X010481Y003354D01*
X010492Y003378D01*
X010500Y003402D01*
X010505Y003427D01*
X010507Y003453D01*
X010505Y003479D01*
X010500Y003504D01*
X010492Y003528D01*
X010481Y003552D01*
X010466Y003573D01*
X010449Y003592D01*
X010430Y003609D01*
X010409Y003624D01*
X010385Y003635D01*
X010361Y003643D01*
X010336Y003648D01*
X010310Y003650D01*
X009444Y003650D01*
X009247Y003453D02*
X009249Y003427D01*
X009254Y003402D01*
X009262Y003378D01*
X009273Y003355D01*
X009288Y003333D01*
X009305Y003314D01*
X009324Y003297D01*
X009346Y003282D01*
X009369Y003271D01*
X009393Y003263D01*
X009418Y003258D01*
X009444Y003256D01*
X009247Y003453D02*
X009249Y003479D01*
X009254Y003504D01*
X009262Y003528D01*
X009273Y003552D01*
X009288Y003573D01*
X009305Y003592D01*
X009324Y003609D01*
X009346Y003624D01*
X009369Y003635D01*
X009393Y003643D01*
X009418Y003648D01*
X009444Y003650D01*
X011649Y004319D02*
X011649Y005185D01*
X011648Y005185D02*
X011650Y005211D01*
X011655Y005236D01*
X011663Y005260D01*
X011674Y005284D01*
X011689Y005305D01*
X011706Y005324D01*
X011725Y005341D01*
X011747Y005356D01*
X011770Y005367D01*
X011794Y005375D01*
X011819Y005380D01*
X011845Y005382D01*
X011871Y005380D01*
X011896Y005375D01*
X011920Y005367D01*
X011944Y005356D01*
X011965Y005341D01*
X011984Y005324D01*
X012001Y005305D01*
X012016Y005284D01*
X012027Y005260D01*
X012035Y005236D01*
X012040Y005211D01*
X012042Y005185D01*
X012042Y004319D01*
X011845Y004122D02*
X011819Y004124D01*
X011794Y004129D01*
X011770Y004137D01*
X011747Y004148D01*
X011725Y004163D01*
X011706Y004180D01*
X011689Y004199D01*
X011674Y004221D01*
X011663Y004244D01*
X011655Y004268D01*
X011650Y004293D01*
X011648Y004319D01*
X011845Y004122D02*
X011871Y004124D01*
X011896Y004129D01*
X011920Y004137D01*
X011944Y004148D01*
X011965Y004163D01*
X011984Y004180D01*
X012001Y004199D01*
X012016Y004221D01*
X012027Y004244D01*
X012035Y004268D01*
X012040Y004293D01*
X012042Y004319D01*
X010310Y005736D02*
X009444Y005736D01*
X009418Y005738D01*
X009393Y005743D01*
X009369Y005751D01*
X009346Y005762D01*
X009324Y005777D01*
X009305Y005794D01*
X009288Y005813D01*
X009273Y005835D01*
X009262Y005858D01*
X009254Y005882D01*
X009249Y005907D01*
X009247Y005933D01*
X010507Y005933D01*
X010505Y005907D01*
X010500Y005882D01*
X010492Y005858D01*
X010481Y005835D01*
X010466Y005813D01*
X010449Y005794D01*
X010430Y005777D01*
X010409Y005762D01*
X010385Y005751D01*
X010361Y005743D01*
X010336Y005738D01*
X010310Y005736D01*
X010507Y005933D02*
X010505Y005959D01*
X010500Y005984D01*
X010492Y006008D01*
X010481Y006032D01*
X010466Y006053D01*
X010449Y006072D01*
X010430Y006089D01*
X010409Y006104D01*
X010385Y006115D01*
X010361Y006123D01*
X010336Y006128D01*
X010310Y006130D01*
X009444Y006130D01*
X009418Y006128D01*
X009393Y006123D01*
X009369Y006115D01*
X009346Y006104D01*
X009324Y006089D01*
X009305Y006072D01*
X009288Y006053D01*
X009273Y006032D01*
X009262Y006008D01*
X009254Y005984D01*
X009249Y005959D01*
X009247Y005933D01*
X002536Y015200D02*
X002538Y015250D01*
X002544Y015299D01*
X002554Y015348D01*
X002567Y015395D01*
X002585Y015442D01*
X002606Y015487D01*
X002630Y015530D01*
X002658Y015571D01*
X002689Y015610D01*
X002723Y015646D01*
X002760Y015680D01*
X002800Y015710D01*
X002841Y015737D01*
X002885Y015761D01*
X002930Y015781D01*
X002977Y015797D01*
X003025Y015810D01*
X003074Y015819D01*
X003124Y015824D01*
X003173Y015825D01*
X003223Y015822D01*
X003272Y015815D01*
X003321Y015804D01*
X003368Y015790D01*
X003414Y015771D01*
X003459Y015749D01*
X003502Y015724D01*
X003542Y015695D01*
X003580Y015663D01*
X003616Y015629D01*
X003649Y015591D01*
X003678Y015551D01*
X003704Y015509D01*
X003727Y015465D01*
X003746Y015419D01*
X003762Y015372D01*
X003774Y015323D01*
X003782Y015274D01*
X003786Y015225D01*
X003786Y015175D01*
X003782Y015126D01*
X003774Y015077D01*
X003762Y015028D01*
X003746Y014981D01*
X003727Y014935D01*
X003704Y014891D01*
X003678Y014849D01*
X003649Y014809D01*
X003616Y014771D01*
X003580Y014737D01*
X003542Y014705D01*
X003502Y014676D01*
X003459Y014651D01*
X003414Y014629D01*
X003368Y014610D01*
X003321Y014596D01*
X003272Y014585D01*
X003223Y014578D01*
X003173Y014575D01*
X003124Y014576D01*
X003074Y014581D01*
X003025Y014590D01*
X002977Y014603D01*
X002930Y014619D01*
X002885Y014639D01*
X002841Y014663D01*
X002800Y014690D01*
X002760Y014720D01*
X002723Y014754D01*
X002689Y014790D01*
X002658Y014829D01*
X002630Y014870D01*
X002606Y014913D01*
X002585Y014958D01*
X002567Y015005D01*
X002554Y015052D01*
X002544Y015101D01*
X002538Y015150D01*
X002536Y015200D01*
X051920Y008000D02*
X051922Y008048D01*
X051928Y008096D01*
X051938Y008143D01*
X051951Y008189D01*
X051969Y008234D01*
X051989Y008278D01*
X052014Y008320D01*
X052042Y008359D01*
X052072Y008396D01*
X052106Y008430D01*
X052143Y008462D01*
X052181Y008491D01*
X052222Y008516D01*
X052265Y008538D01*
X052310Y008556D01*
X052356Y008570D01*
X052403Y008581D01*
X052451Y008588D01*
X052499Y008591D01*
X052547Y008590D01*
X052595Y008585D01*
X052643Y008576D01*
X052689Y008564D01*
X052734Y008547D01*
X052778Y008527D01*
X052820Y008504D01*
X052860Y008477D01*
X052898Y008447D01*
X052933Y008414D01*
X052965Y008378D01*
X052995Y008340D01*
X053021Y008299D01*
X053043Y008256D01*
X053063Y008212D01*
X053078Y008167D01*
X053090Y008120D01*
X053098Y008072D01*
X053102Y008024D01*
X053102Y007976D01*
X053098Y007928D01*
X053090Y007880D01*
X053078Y007833D01*
X053063Y007788D01*
X053043Y007744D01*
X053021Y007701D01*
X052995Y007660D01*
X052965Y007622D01*
X052933Y007586D01*
X052898Y007553D01*
X052860Y007523D01*
X052820Y007496D01*
X052778Y007473D01*
X052734Y007453D01*
X052689Y007436D01*
X052643Y007424D01*
X052595Y007415D01*
X052547Y007410D01*
X052499Y007409D01*
X052451Y007412D01*
X052403Y007419D01*
X052356Y007430D01*
X052310Y007444D01*
X052265Y007462D01*
X052222Y007484D01*
X052181Y007509D01*
X052143Y007538D01*
X052106Y007570D01*
X052072Y007604D01*
X052042Y007641D01*
X052014Y007680D01*
X051989Y007722D01*
X051969Y007766D01*
X051951Y007811D01*
X051938Y007857D01*
X051928Y007904D01*
X051922Y007952D01*
X051920Y008000D01*
X052036Y002700D02*
X052038Y002750D01*
X052044Y002799D01*
X052054Y002848D01*
X052067Y002895D01*
X052085Y002942D01*
X052106Y002987D01*
X052130Y003030D01*
X052158Y003071D01*
X052189Y003110D01*
X052223Y003146D01*
X052260Y003180D01*
X052300Y003210D01*
X052341Y003237D01*
X052385Y003261D01*
X052430Y003281D01*
X052477Y003297D01*
X052525Y003310D01*
X052574Y003319D01*
X052624Y003324D01*
X052673Y003325D01*
X052723Y003322D01*
X052772Y003315D01*
X052821Y003304D01*
X052868Y003290D01*
X052914Y003271D01*
X052959Y003249D01*
X053002Y003224D01*
X053042Y003195D01*
X053080Y003163D01*
X053116Y003129D01*
X053149Y003091D01*
X053178Y003051D01*
X053204Y003009D01*
X053227Y002965D01*
X053246Y002919D01*
X053262Y002872D01*
X053274Y002823D01*
X053282Y002774D01*
X053286Y002725D01*
X053286Y002675D01*
X053282Y002626D01*
X053274Y002577D01*
X053262Y002528D01*
X053246Y002481D01*
X053227Y002435D01*
X053204Y002391D01*
X053178Y002349D01*
X053149Y002309D01*
X053116Y002271D01*
X053080Y002237D01*
X053042Y002205D01*
X053002Y002176D01*
X052959Y002151D01*
X052914Y002129D01*
X052868Y002110D01*
X052821Y002096D01*
X052772Y002085D01*
X052723Y002078D01*
X052673Y002075D01*
X052624Y002076D01*
X052574Y002081D01*
X052525Y002090D01*
X052477Y002103D01*
X052430Y002119D01*
X052385Y002139D01*
X052341Y002163D01*
X052300Y002190D01*
X052260Y002220D01*
X052223Y002254D01*
X052189Y002290D01*
X052158Y002329D01*
X052130Y002370D01*
X052106Y002413D01*
X052085Y002458D01*
X052067Y002505D01*
X052054Y002552D01*
X052044Y002601D01*
X052038Y002650D01*
X052036Y002700D01*
X052036Y015200D02*
X052038Y015250D01*
X052044Y015299D01*
X052054Y015348D01*
X052067Y015395D01*
X052085Y015442D01*
X052106Y015487D01*
X052130Y015530D01*
X052158Y015571D01*
X052189Y015610D01*
X052223Y015646D01*
X052260Y015680D01*
X052300Y015710D01*
X052341Y015737D01*
X052385Y015761D01*
X052430Y015781D01*
X052477Y015797D01*
X052525Y015810D01*
X052574Y015819D01*
X052624Y015824D01*
X052673Y015825D01*
X052723Y015822D01*
X052772Y015815D01*
X052821Y015804D01*
X052868Y015790D01*
X052914Y015771D01*
X052959Y015749D01*
X053002Y015724D01*
X053042Y015695D01*
X053080Y015663D01*
X053116Y015629D01*
X053149Y015591D01*
X053178Y015551D01*
X053204Y015509D01*
X053227Y015465D01*
X053246Y015419D01*
X053262Y015372D01*
X053274Y015323D01*
X053282Y015274D01*
X053286Y015225D01*
X053286Y015175D01*
X053282Y015126D01*
X053274Y015077D01*
X053262Y015028D01*
X053246Y014981D01*
X053227Y014935D01*
X053204Y014891D01*
X053178Y014849D01*
X053149Y014809D01*
X053116Y014771D01*
X053080Y014737D01*
X053042Y014705D01*
X053002Y014676D01*
X052959Y014651D01*
X052914Y014629D01*
X052868Y014610D01*
X052821Y014596D01*
X052772Y014585D01*
X052723Y014578D01*
X052673Y014575D01*
X052624Y014576D01*
X052574Y014581D01*
X052525Y014590D01*
X052477Y014603D01*
X052430Y014619D01*
X052385Y014639D01*
X052341Y014663D01*
X052300Y014690D01*
X052260Y014720D01*
X052223Y014754D01*
X052189Y014790D01*
X052158Y014829D01*
X052130Y014870D01*
X052106Y014913D01*
X052085Y014958D01*
X052067Y015005D01*
X052054Y015052D01*
X052044Y015101D01*
X052038Y015150D01*
X052036Y015200D01*
M02*
